<svg xmlns="http://www.w3.org/2000/svg" viewBox="0 0 100.273 100.273">
  <defs>
    <style>
      .cls-1 {
        fill: #4764ae;
      }
    </style>
  </defs>
  <title>awards</title>
  <g id="Calque_2" data-name="Calque 2">
    <g id="Calque_1-2" data-name="Calque 1">
      <g id="success">
        <path id="Tracé_14" data-name="Tracé 14" class="cls-1" d="M96.275,59.84a4.033,4.033,0,0,0-2.471.869V59.032a4.044,4.044,0,1,0-8.087,0h0a19.3,19.3,0,0,1-1.386,7.2l-1.7,4.242a3.227,3.227,0,0,1-1.98.69h-4.5a3.242,3.242,0,0,1-2.07-.75l-1.488-1.241,5.553-2.279a4.368,4.368,0,0,0,2.717-4.053v-.233a4.387,4.387,0,0,0-5.83-4.139l-14.2,4.97a6.5,6.5,0,0,0-3.245,2.518l-4.753,7.129a6.456,6.456,0,0,0-1.081,3.587v23.6h3.235v-8.9h8.087v8.9h3.235V90.023l1.676-5.035a4.844,4.844,0,0,1,4.6-3.318H82.811a8.081,8.081,0,0,0,6.044-2.716L99.264,67.247a4,4,0,0,0,1.008-2.654v-.758a4,4,0,0,0-4-4Zm-6.514-1.617a.81.81,0,0,1,.809.809v4.5l-2.706,2.376a22.488,22.488,0,0,0,1.088-6.872.81.81,0,0,1,.809-.809ZM97.039,64.6a.76.76,0,0,1-.193.506L86.438,76.809a4.857,4.857,0,0,1-3.625,1.628H72.59a8.075,8.075,0,0,0-7.67,5.53l-1.391,4.174H54.99V76.671a3.226,3.226,0,0,1,.543-1.794l4.753-7.13a3.254,3.254,0,0,1,1.622-1.257l14.2-4.968a1.177,1.177,0,0,1,1.475.769,1.161,1.161,0,0,1,.053.314v.233a1.147,1.147,0,0,1-.712,1.063l-9.335,3.834A6.447,6.447,0,0,0,63.081,73.9v1.3h3.235V73.9a3.283,3.283,0,0,1,2.378-3.128l.519-.213,2.8,2.337a6.47,6.47,0,0,0,4.142,1.5h4.5a6.471,6.471,0,0,0,4.268-1.606L95.79,63.246a.787.787,0,0,1,1.249.588Z"/>
        <path id="Tracé_15" data-name="Tracé 15" class="cls-1" d="M42.681,65.957a6.519,6.519,0,0,0-3.246-2.522l-14.2-4.969a4.388,4.388,0,0,0-5.83,4.139v.233a4.368,4.368,0,0,0,2.719,4.054l5.556,2.277-1.492,1.242a3.248,3.248,0,0,1-2.07.749h-4.5a3.227,3.227,0,0,1-1.98-.69l-1.7-4.244a19.3,19.3,0,0,1-1.386-7.2,4.044,4.044,0,0,0-8.087,0V60.7A3.99,3.99,0,0,0,0,63.838V64.6a4.005,4.005,0,0,0,1.009,2.656L11.417,78.959a8.089,8.089,0,0,0,6.044,2.716H27.684a4.843,4.843,0,0,1,4.6,3.319l1.677,5.028v10.25H37.2v-8.9h8.087v8.9h3.235v-23.6a6.447,6.447,0,0,0-1.087-3.589ZM10.512,58.223a.81.81,0,0,1,.809.809,22.5,22.5,0,0,0,1.088,6.874L9.7,63.529v-4.5a.81.81,0,0,1,.809-.809ZM27.683,78.439H17.46a4.857,4.857,0,0,1-3.626-1.628L3.429,65.1a.75.75,0,0,1-.194-.508v-.758A.763.763,0,0,1,4,63.075a.745.745,0,0,1,.446.142l10.9,9.571a6.471,6.471,0,0,0,4.268,1.606h4.5a6.483,6.483,0,0,0,4.142-1.5l2.807-2.341.639.262A3.222,3.222,0,0,1,33.961,73.9v1.3H37.2V73.9a6.4,6.4,0,0,0-4.384-6.118L23.358,63.9a1.147,1.147,0,0,1-.713-1.063V62.6a1.178,1.178,0,0,1,1.526-1.083l14.2,4.966a3.265,3.265,0,0,1,1.624,1.26l4.753,7.129a3.234,3.234,0,0,1,.543,1.794V88.139H36.747l-1.391-4.174a8.078,8.078,0,0,0-7.672-5.529Z"/>
        <path id="Tracé_16" data-name="Tracé 16" class="cls-1" d="M50.137,10.443l-2.88,3.385-4.108,1.694,2.327,3.784.341,4.428,4.32-1.045,4.318,1.045.341-4.428,2.327-3.784-4.108-1.694Zm1.494,7.832L51.523,19.7l-1.386-.336-1.384.336-.11-1.422L47.9,17.062l1.319-.543.923-1.085.923,1.085,1.319.543Z"/>
        <path id="Tracé_17" data-name="Tracé 17" class="cls-1" d="M31.793,24.51a1.72,1.72,0,0,1,.553,1.367,1.618,1.618,0,1,1-3.235,0V24.259H25.877v1.617a4.853,4.853,0,1,0,8.048-3.8L23.99,13.383a3.944,3.944,0,0,1,2.6-6.912h2.8A35.131,35.131,0,0,0,45.29,31.61V48.519H40.438a8.1,8.1,0,0,0-8.087,8.087v1.617H67.927V56.606a8.1,8.1,0,0,0-8.087-8.087H54.988V31.608a35.141,35.141,0,0,0,15.9-25.139h2.8a3.944,3.944,0,0,1,2.6,6.912l-9.935,8.693a4.949,4.949,0,0,0-1.656,3.8,4.852,4.852,0,0,0,9.7,0V24.259H71.162v1.617a1.618,1.618,0,0,1-1.617,1.617,1.658,1.658,0,0,1-1.62-1.7q0-.036,0-.072a1.621,1.621,0,0,1,.553-1.217l9.934-8.693A7.179,7.179,0,0,0,73.688,3.234h-2.56c.011-.358.036-.712.036-1.071V0H29.107V2.164c0,.359.024.713.036,1.071h-2.56a7.179,7.179,0,0,0-4.727,12.582ZM64.416,54.989H35.857a4.86,4.86,0,0,1,4.576-3.235H59.841a4.86,4.86,0,0,1,4.576,3.235Zm-15.9-6.469V32.346h3.235V48.519ZM67.907,3.234a31.3,31.3,0,0,1-.294,3.235h-4.54V9.7H66.99A31.876,31.876,0,0,1,52.917,29.108h-5.56A31.863,31.863,0,0,1,33.284,9.7H59.84V6.469H32.658a31.3,31.3,0,0,1-.294-3.235Z"/>
        <path id="Tracé_18" data-name="Tracé 18" class="cls-1" d="M16.173,30.729v4.182l-2.958-2.957-2.287,2.287L13.886,37.2H9.7v3.231h4.182l-2.958,2.957,2.287,2.287,2.958-2.957V46.9H19.4V42.716l2.958,2.957,2.287-2.287L21.7,40.429h4.182V37.194H21.7l2.958-2.957L22.366,31.95,19.4,34.911V30.729Zm2.957,4.852,1.9,1.9V40.16l-1.9,1.9H16.451l-1.9-1.9V37.481l1.9-1.9Z"/>
        <path id="Tracé_19" data-name="Tracé 19" class="cls-1" d="M96.091,17.79l2.958-2.957-2.287-2.287L93.8,15.5V11.321H90.57V15.5l-2.958-2.957-2.287,2.287,2.958,2.957H84.1v3.231h4.182l-2.958,2.957,2.287,2.287,2.958-2.957V27.49H93.8V23.312l2.958,2.957,2.287-2.287-2.954-2.961h4.182V17.79Zm-.67.278v2.679l-1.9,1.9H90.842l-1.9-1.9V18.068l1.9-1.9h2.679Z"/>
        <path id="Tracé_20" data-name="Tracé 20" class="cls-1" d="M74.4,33.963h3.235V37.2H74.4Z"/>
        <path id="Tracé_21" data-name="Tracé 21" class="cls-1" d="M71.162,37.2H74.4v3.235H71.162Z"/>
        <path id="Tracé_22" data-name="Tracé 22" class="cls-1" d="M74.4,40.433h3.235v3.235H74.4Z"/>
        <path id="Tracé_23" data-name="Tracé 23" class="cls-1" d="M77.631,37.2h3.235v3.235H77.631Z"/>
        <path id="Tracé_24" data-name="Tracé 24" class="cls-1" d="M9.7,0h3.235V3.235H9.7Z"/>
        <path id="Tracé_25" data-name="Tracé 25" class="cls-1" d="M6.469,3.234H9.7V6.469H6.469Z"/>
        <path id="Tracé_26" data-name="Tracé 26" class="cls-1" d="M9.7,6.469h3.235V9.7H9.7Z"/>
        <path id="Tracé_27" data-name="Tracé 27" class="cls-1" d="M12.938,3.234h3.235V6.469H12.938Z"/>
      </g>
    </g>
  </g>
</svg>
