<svg xmlns="http://www.w3.org/2000/svg" viewBox="0 0 99.993 100.007">
  <defs>
    <style>
      .cls-1 {
        fill: #4764ae;
      }
    </style>
  </defs>
  <title>connection</title>
  <g id="Calque_2" data-name="Calque 2">
    <g id="Calque_1-2" data-name="Calque 1">
      <path id="connection" class="cls-1" d="M95.15,27.425a4.826,4.826,0,0,0,1.339-9.466l.18-8.543a4.825,4.825,0,1,0-6.3-5.136L70.276,8.861A4.8,4.8,0,0,0,63.72,7.1c-.117.068-.232.14-.344.218A23.868,23.868,0,0,0,42.055,4.6a4.8,4.8,0,0,0-7.6,1.188L22.479,3.943a4.835,4.835,0,1,0-8.732,3.638L6.194,17.969a4.726,4.726,0,0,0-1.366-.221,4.827,4.827,0,0,0-.406,9.637l5.75,21.85a4.727,4.727,0,0,0-1.94,5.231A24.161,24.161,0,1,0,44.655,85.44c.135.014.266.039.4.04l1.965,5.892a4.823,4.823,0,1,0,7.506,5.408H71.255a4.818,4.818,0,0,0,9.242-.51A24.088,24.088,0,0,0,94.468,57.28a4.783,4.783,0,0,0,.682-2.435,4.845,4.845,0,0,0-4.838-4.839c-.15,0-.291.031-.437.043L84.006,37.335a4.812,4.812,0,0,0,1.466-3.458,4.761,4.761,0,0,0-.266-1.514l7.342-5.71a4.79,4.79,0,0,0,2.6.773ZM93.442,9.356l-.185,8.78a4.835,4.835,0,0,0-1.752,1.3l-19.631-7.63,19.2-4.377A4.843,4.843,0,0,0,93.442,9.356ZM95.15,24.2a1.613,1.613,0,1,1,1.613-1.613h0A1.615,1.615,0,0,1,95.15,24.2Zm0-20.968a1.613,1.613,0,1,1-1.613,1.613h0A1.615,1.615,0,0,1,95.15,3.232ZM66.118,9.683A1.613,1.613,0,1,1,64.505,11.3h0A1.615,1.615,0,0,1,66.118,9.683ZM61.5,9.94a4.771,4.771,0,0,0,5.978,5.978,20.841,20.841,0,0,1-1.357,24.888V37.527a6.481,6.481,0,0,0-4.679-6.205l-6.611-1.887V27.384a8.032,8.032,0,0,0,3.226-6.41V17.748a8.065,8.065,0,0,0-16.129,0v3.226a8.031,8.031,0,0,0,3.226,6.41v2.052l-6.612,1.886a6.481,6.481,0,0,0-4.679,6.205v3.229a20.814,20.814,0,0,1-4.009-7.564,4.817,4.817,0,0,0-.584-8.618,21.027,21.027,0,0,1,6.607-12.592,4.82,4.82,0,0,0,7.664-3.911,4.764,4.764,0,0,0-.057-.56A20.714,20.714,0,0,1,61.5,9.941ZM49.989,25.812a4.845,4.845,0,0,1-4.839-4.839V17.748a4.839,4.839,0,1,1,9.677-.139c0,.046,0,.093,0,.139v3.226A4.845,4.845,0,0,1,49.989,25.812Zm0,3.226a8.091,8.091,0,0,0,1.613-.163v1.108L49.989,31.6l-1.613-1.613V28.875A8.091,8.091,0,0,0,49.989,29.038Zm-3.7,3.424,3.7,3.7,3.7-3.7,6.867,1.963a3.239,3.239,0,0,1,2.341,3.1v6.392a20.808,20.808,0,0,1-25.806-.02v-6.37a3.241,3.241,0,0,1,2.339-3.1Zm-33.4,19.157a1.613,1.613,0,1,1-1.613,1.613h0A1.615,1.615,0,0,1,12.889,51.619Zm.406-3.186L7.549,26.583a4.875,4.875,0,0,0,1.21-1.2L22.6,29.338A4.793,4.793,0,0,0,23.689,32.1L13.855,48.49a5.177,5.177,0,0,0-.557-.057Zm4.432-38.75c.066,0,.126-.016.191-.02l6.3,15.758a4.942,4.942,0,0,0-.748.815L9.636,22.282a4.79,4.79,0,0,0-.824-2.432L16.366,9.462a4.725,4.725,0,0,0,1.365.221Zm4.242-2.554L33.95,8.972c.02.114.057.221.088.332a24.265,24.265,0,0,0-7.62,12.917L20.918,8.46A4.811,4.811,0,0,0,21.969,7.129Zm5.439,20.3A1.613,1.613,0,1,1,25.8,29.042a1.613,1.613,0,0,1,1.613-1.613h0ZM38.7,6.458a1.613,1.613,0,1,1-1.61,1.616v0A1.615,1.615,0,0,1,38.7,6.458ZM17.731,3.232a1.613,1.613,0,1,1-1.613,1.613A1.613,1.613,0,0,1,17.731,3.232ZM3.215,22.587A1.613,1.613,0,1,1,4.828,24.2,1.613,1.613,0,0,1,3.215,22.587ZM11.279,89.08V82.689a3.241,3.241,0,0,1,2.339-3.1l6.871-1.965,3.7,3.7,3.7-3.7,6.867,1.963a3.239,3.239,0,0,1,2.341,3.1V89.1a20.873,20.873,0,0,1-25.806-.016Zm12.9-18.107a4.845,4.845,0,0,1-4.839-4.839V62.906a4.839,4.839,0,1,1,9.677-.139c0,.046,0,.093,0,.139v3.226a4.845,4.845,0,0,1-4.835,4.842Zm0,3.226a8.091,8.091,0,0,0,1.613-.163v1.108l-1.613,1.613-1.613-1.613V74.037a8.121,8.121,0,0,0,1.616.163ZM40.312,85.952V82.687a6.481,6.481,0,0,0-4.679-6.2L29.022,74.6V72.545a8.032,8.032,0,0,0,3.226-6.41V62.906a8.065,8.065,0,0,0-16.129-.18v3.406a8.028,8.028,0,0,0,3.226,6.41v2.052l-6.611,1.887a6.481,6.481,0,0,0-4.679,6.205v3.28A20.865,20.865,0,0,1,10.07,57.145a4.822,4.822,0,0,0,7.663-3.913,4.614,4.614,0,0,0-.055-.55,20.74,20.74,0,0,1,6.507-1.063A20.991,20.991,0,0,1,45.15,72.587a20.441,20.441,0,0,1-.3,3.257,4.818,4.818,0,0,0-3.131,8.216,20.964,20.964,0,0,1-1.41,1.892Zm4.839-6.913a1.613,1.613,0,1,1-1.613,1.613h0a1.616,1.616,0,0,1,1.612-1.614ZM49.989,96.78A1.613,1.613,0,1,1,51.6,95.167h0A1.615,1.615,0,0,1,49.989,96.78ZM75.8,70.974a4.845,4.845,0,0,1-4.839-4.839V62.906a4.839,4.839,0,0,1,9.677-.139c0,.046,0,.093,0,.139v3.226A4.845,4.845,0,0,1,75.8,70.974Zm0,3.226a8.091,8.091,0,0,0,1.613-.163v1.108L75.8,76.758l-1.613-1.613V74.037A8.091,8.091,0,0,0,75.8,74.2Zm-3.7,3.424,3.7,3.7,3.7-3.7,6.867,1.963a3.239,3.239,0,0,1,2.341,3.1v6.361a20.788,20.788,0,0,1-8.568,4.009,4.808,4.808,0,0,0-8.671,0,20.786,20.786,0,0,1-8.575-4.007V82.689a3.241,3.241,0,0,1,2.339-3.1ZM75.8,96.78a1.613,1.613,0,1,1,1.613-1.613h0A1.615,1.615,0,0,1,75.8,96.78ZM91.924,85.9V82.687a6.481,6.481,0,0,0-4.679-6.2L80.634,74.6V72.545a8.032,8.032,0,0,0,3.226-6.41V62.906a8.065,8.065,0,0,0-16.129-.18v3.406a8.031,8.031,0,0,0,3.226,6.41v2.052l-6.611,1.887a6.481,6.481,0,0,0-4.679,6.205V85.9A20.912,20.912,0,0,1,85.552,54.06a4.8,4.8,0,0,0,6.455,5.3A20.745,20.745,0,0,1,91.925,85.9Zm0-31.052a1.613,1.613,0,1,1-1.613-1.613h0a1.614,1.614,0,0,1,1.613,1.614Zm-5.135-3.782A24.157,24.157,0,0,0,63.82,93.554H54.531a4.825,4.825,0,0,0-4.451-3.216l-1.965-5.892a4.792,4.792,0,0,0-.146-7.713A24.109,24.109,0,0,0,17.013,49.5l9.432-15.72c.076.017.158.011.234.024a24.178,24.178,0,0,0,47.5-6.379,23.907,23.907,0,0,0-3.613-12.669l19.76,7.686c0,.048-.014.1-.014.145a4.761,4.761,0,0,0,.266,1.514l-7.343,5.705a4.79,4.79,0,0,0-2.6-.773,4.839,4.839,0,0,0,0,9.677c.15,0,.291-.031.436-.043ZM80.634,35.49a1.613,1.613,0,1,1,1.613-1.613h0A1.615,1.615,0,0,1,80.634,35.49Z"/>
    </g>
  </g>
</svg>
