<svg xmlns="http://www.w3.org/2000/svg" viewBox="0 0 100.262 100.262">
  <defs>
    <style>
      .cls-1 {
        fill: #4764ae;
      }
    </style>
  </defs>
  <title>dashboard</title>
  <g id="Calque_2" data-name="Calque 2">
    <g id="Calque_1-2" data-name="Calque 1">
      <g id="Groupe_4" data-name="Groupe 4">
        <g id="analysing">
          <path id="Tracé_7" data-name="Tracé 7" class="cls-1" d="M91.488,72.693,79.239,69.867V66.682a12.982,12.982,0,0,0,3.924-5.3,7.921,7.921,0,0,0,7.351-8.013h.045V40.69a8.7,8.7,0,0,0-5.581-8.13L83.79,31.372a18.93,18.93,0,0,0-2.932-2.395V0H0V67.92H63.068v1.947L50.819,72.693a11.267,11.267,0,0,0-8.774,11.03v16.539h58.217V83.723A11.267,11.267,0,0,0,91.488,72.693Zm-27.17.2,3.943,2.956-4.055,2.434L63.18,73.16Zm5.049,12.809h3.572L74.2,97.028H68.109Zm3.855-3.234H69.084l-.929-2.785,3-1.8,3,1.8Zm.827-6.619L77.991,72.9l1.14.264L78.105,78.29Zm1.957-5.51-4.851,3.639L66.3,70.345V68.584a12.833,12.833,0,0,0,9.7,0ZM71.154,66.3a9.713,9.713,0,0,1-9.7-9.7V48.514h5.49a20.793,20.793,0,0,0,10.018-2.562l1.281,2.562H80.86V56.6a9.713,9.713,0,0,1-9.7,9.7ZM58.286,57.935a4.781,4.781,0,0,1-.069-9.073V56.6a12.965,12.965,0,0,0,.069,1.336Zm27.779-1.307a4.837,4.837,0,0,1-2.043,1.307c.043-.44.068-.885.068-1.336V48.861a4.885,4.885,0,0,1,3.21,4.022,4.824,4.824,0,0,1-1.237,3.745ZM83.217,35.373l.362.12a5.476,5.476,0,0,1,3.745,5.2v6.344A8.49,8.49,0,0,0,82.2,45.279H80.239L78.25,41.3l-1.524,1.015a17.594,17.594,0,0,1-9.785,2.963H60.112a8.491,8.491,0,0,0-5.129,1.755V44.642A15.535,15.535,0,0,1,81.5,33.657ZM3.234,3.234H77.622V27.263a18.785,18.785,0,0,0-25.874,17.38v8.723h.045a7.921,7.921,0,0,0,7.351,8.013,12.937,12.937,0,0,0,1.927,3.307H3.234ZM45.28,83.724a8.049,8.049,0,0,1,6.266-7.879l8.48-1.957,1.906,9.535,3.383-2.031.955,2.87L64.855,97.028H56.6V84.091H53.365V97.028H45.28Zm51.748,13.3H88.942V84.091H85.708V97.028H77.452L76.034,84.264l.955-2.87,3.383,2.031,1.906-9.535,8.48,1.957a8.048,8.048,0,0,1,6.268,7.877Z"/>
          <path id="Tracé_8" data-name="Tracé 8" class="cls-1" d="M24.257,29.108A16.171,16.171,0,1,0,40.428,45.279,16.171,16.171,0,0,0,24.257,29.108ZM34.546,37.47,31.729,39.1a9.827,9.827,0,0,0-1.29-1.29l1.627-2.817A13,13,0,0,1,34.546,37.47Zm-.732,6.192a9.557,9.557,0,0,0-.472-1.759l2.839-1.64a12.842,12.842,0,0,1,.9,3.4Zm-9.557,8.086a6.469,6.469,0,1,1,6.468-6.47h0A6.475,6.475,0,0,1,24.257,51.748Zm1.617-16.026V32.454a12.8,12.8,0,0,1,3.4.9l-1.64,2.839a9.718,9.718,0,0,0-1.759-.472ZM22.64,32.454v3.268a9.717,9.717,0,0,0-7.94,7.94H11.432A12.954,12.954,0,0,1,22.641,32.453ZM11.432,46.9H14.7a9.717,9.717,0,0,0,7.94,7.94v3.271A12.954,12.954,0,0,1,11.431,46.9ZM25.874,58.108V54.84a9.717,9.717,0,0,0,7.94-7.94h3.272A12.952,12.952,0,0,1,25.874,58.108Z"/>
          <path id="Tracé_9" data-name="Tracé 9" class="cls-1" d="M61.45,6.468H42.662L34.577,22.639H32.342V6.468H29.108V22.639H25.874V9.7H22.639V22.639H19.405V14.554H16.168V22.64H12.937V17.788H9.7v4.851H6.468v3.234H36.576L44.662,9.7H61.45Z"/>
          <path id="Tracé_10" data-name="Tracé 10" class="cls-1" d="M64.685,6.468h3.234V9.7H64.685Z"/>
          <path id="Tracé_11" data-name="Tracé 11" class="cls-1" d="M71.154,6.468h3.234V9.7H71.154Z"/>
          <path id="Tracé_12" data-name="Tracé 12" class="cls-1" d="M45.28,12.936H74.388V16.17H45.28Z"/>
          <path id="Tracé_13" data-name="Tracé 13" class="cls-1" d="M45.28,19.405H74.388v3.234H45.28Z"/>
        </g>
      </g>
    </g>
  </g>
</svg>
