<svg xmlns="http://www.w3.org/2000/svg" viewBox="0 0 241.204 241.243">
  <defs>
    <style>
      .cls-1 {
        fill: #fefefe;
      }

      .cls-2 {
        fill: #2f5fed;
      }

      .cls-3 {
        fill: #8a8ca3;
      }
    </style>
  </defs>
  <title>logo-dark</title>
  <g id="Calque_2" data-name="Calque 2">
    <g id="Calque_1-2" data-name="Calque 1">
      <g>
        <path class="cls-1" d="M195.894,26.66c.071.141.26.163.3.086.071-.146-.161-.083-.207-.178-.555-.477-1.083-.993-1.671-1.426-2.628-1.937-5.252-3.879-8-5.654-3.052-1.974-6.163-3.848-9.382-5.528a124.909,124.909,0,0,0-13.27-6.008c-4.192-1.6-8.465-2.917-12.778-4.126-.369-.1-.6-.055-.667.428a18.654,18.654,0,0,0-.278,4.953A28.241,28.241,0,0,0,150.877,14a42.847,42.847,0,0,0,6.561,12.63c.129.18.226.307.456.264,1.37-.261,2.757-.432,4.125-.679,2.033-.369,4.085-.573,6.126-.859,1.857-.261,3.733-.411,5.6-.532,2.123-.136,4.251-.2,6.378-.27.8-.027,1.606.088,2.4.1,2.019.031,4.021.179,6.027.4A36.981,36.981,0,0,1,195.894,26.66Zm45.15,88.487c-.113-1.768-.207-3.538-.368-5.306-.207-2.275-.51-4.535-.787-6.8-.3-2.433-.749-4.84-1.247-7.228q-1.146-5.492-2.827-10.862c-1-3.167-2.091-6.3-3.319-9.382-.96-2.411-2.028-4.778-3.154-7.118-.126-.262-.231-.584-.616-.593-.713-.016-1.409-.174-2.113-.256a57.808,57.808,0,0,1-6.9-1.242,107.357,107.357,0,0,1-12.4-3.728q-5.337-1.992-10.478-4.425c-2.445-1.155-4.83-2.432-7.19-3.758-2.62-1.472-5.2-3.015-7.7-4.671q-4.088-2.7-7.949-5.71c-2.18-1.7-4.318-3.453-6.329-5.342-1.391-1.307-2.813-2.585-4.1-4.013-1.625-1.8-3.284-3.566-4.782-5.478a52.755,52.755,0,0,1-5.867-8.967,39.7,39.7,0,0,1-2.589-6.286,22.776,22.776,0,0,1-.991-6.48,11.664,11.664,0,0,1,.4-3.326c.187-.634-.119-.658-.546-.76-3.795-.9-7.618-1.677-11.482-2.2-2.838-.388-5.693-.662-8.546-.928-1.683-.157-3.38-.215-5.067-.243C121.5,0,118.908-.046,116.31.107c-2.206.13-4.412.237-6.617.4-1.465.112-2.925.274-4.38.443-2.258.262-4.5.657-6.743,1.045a2.468,2.468,0,0,0-1.607.571c-.85.979-1.843,1.813-2.7,2.787a59.063,59.063,0,0,0-4.147,5.2,51.51,51.51,0,0,0-4.967,8.867,48.215,48.215,0,0,0-2.49,7.092,62.319,62.319,0,0,0-1.618,8.464c-.259,2.131-.345,4.266-.467,6.4a49.163,49.163,0,0,0,.223,5.789q.168,2.749.547,5.471c.308,2.229.714,4.445,1.229,6.634a96.363,96.363,0,0,0,3.106,10.581,105.475,105.475,0,0,0,4.063,9.784c1.121,2.347,2.29,4.671,3.568,6.94,1.391,2.467,2.8,4.922,4.376,7.276,1.129,1.684,2.255,3.367,3.444,5.013q1.66,2.3,3.362,4.561c2.44,3.246,5.088,6.316,7.8,9.331,1.789,1.991,3.662,3.91,5.551,5.808.656.66,1.363,1.278,2.035,1.928.97.939,1.925,1.9,2.938,2.787.489.431.945.9,1.438,1.319,1.672,1.432,3.348,2.86,5.045,4.261,1.411,1.164,2.838,2.31,4.287,3.425,1.99,1.533,4.02,3.01,6.07,4.462q4.518,3.2,9.241,6.079c2.691,1.644,5.433,3.2,8.2,4.715,3.4,1.861,6.864,3.572,10.388,5.162q5.059,2.283,10.283,4.193a154.788,154.788,0,0,0,15.5,4.792c2.783.695,5.59,1.279,8.406,1.814,1.664.316,3.341.589,5.022.792s3.339.39,5.009.574c2.108.232,4.224.4,6.332.453,3.028.07,6.062.126,9.1-.062,1.557-.1,3.112-.233,4.671-.3a1.323,1.323,0,0,0,1.388-1.027c.462-1.483,1.049-2.927,1.559-4.4q1.5-4.337,2.629-8.786c.724-2.865,1.341-5.751,1.878-8.659.387-2.091.691-4.192.988-6.293.307-2.176.5-4.371.663-6.564.146-1.925.246-3.858.262-5.788C241.187,120.687,241.286,117.914,241.044,115.147Zm-69.965,115.01c-3.127-.906-6.09-1.724-9.01-2.7q-6.217-2.075-12.277-4.564c-3.737-1.525-7.4-3.211-11.039-4.947-2.54-1.211-5.037-2.515-7.495-3.889-1.982-1.108-4.007-2.134-5.946-3.324-1.919-1.177-3.863-2.314-5.779-3.5q-5.849-3.618-11.448-7.6-3.468-2.462-6.835-5.068-4.145-3.192-8.177-6.52c-1.863-1.543-3.708-3.111-5.509-4.726-2.311-2.073-4.633-4.142-6.838-6.326-3.582-3.545-7.217-7.04-10.587-10.8-1.216-1.355-2.448-2.7-3.655-4.06-1.6-1.813-3.169-3.657-4.724-5.511-1.993-2.378-3.917-4.811-5.793-7.277-2.444-3.211-4.8-6.488-7.041-9.846-1.356-2.034-2.7-4.081-3.987-6.156q-2.652-4.263-5.074-8.664c-.778-1.412-1.5-2.857-2.275-4.266-1.523-2.752-2.8-5.619-4.129-8.462-1.112-2.386-2.05-4.851-3.047-7.289-1.508-3.691-2.721-7.481-3.917-11.277-.919-2.917-1.645-5.89-2.32-8.875-.667-2.95-1.191-5.926-1.618-8.918-.286-2-.5-4.021-.655-6.039-.152-1.99-.206-3.989-.273-5.986-.06-1.764.163-3.522.157-5.289a15.393,15.393,0,0,1,.114-2.008c.258-1.977.4-3.968.716-5.947C8.359,70.291.624,92.559.04,117.056c-.79,33.18,10.124,62.235,32.934,86.358,22.67,23.976,50.878,36.479,83.857,37.741A117.6,117.6,0,0,0,171.079,230.157Zm52.687-64.177c-2.155-.2-4.311-.039-6.468-.2-1.877-.139-3.756-.246-5.633-.409-2.147-.187-4.274-.505-6.409-.784-2.408-.314-4.793-.766-7.164-1.253-2.282-.469-4.55-1.027-6.807-1.625q-7.493-1.986-14.742-4.71a161.446,161.446,0,0,1-14.867-6.48c-3.448-1.7-6.821-3.547-10.135-5.5q-5.94-3.5-11.6-7.441-5.905-4.122-11.451-8.707-3.375-2.792-6.613-5.736c-1.74-1.586-3.4-3.26-5.069-4.926-1.573-1.573-3.155-3.142-4.644-4.793-1.648-1.83-3.275-3.681-4.841-5.585q-1.808-2.2-3.548-4.444c-1.235-1.6-2.408-3.24-3.568-4.894-1.456-2.074-2.879-4.168-4.2-6.331-.228-.373-.366-.379-.725-.188-2.035,1.082-4.089,2.125-6.13,3.193-3.089,1.616-6.115,3.343-9.131,5.091-3.677,2.131-7.271,4.39-10.828,6.711-1.331.868-2.656,1.748-3.956,2.663-2.2,1.547-4.4,3.09-6.548,4.7-3.191,2.392-6.321,4.861-9.342,7.47-2.184,1.886-4.351,3.786-6.437,5.78a.783.783,0,0,0-.169,1.159c1.457,2.332,2.843,4.709,4.343,7.012,3.122,4.793,6.4,9.473,9.891,14.013,2.377,3.095,4.832,6.125,7.337,9.113,1.975,2.356,4.046,4.634,6.112,6.911,1.506,1.66,3.042,3.3,4.625,4.882,1.679,1.684,3.357,3.368,5.082,5.009,2.505,2.382,5.023,4.748,7.608,7.044,1.183,1.05,2.345,2.124,3.553,3.144,1.7,1.434,3.419,2.839,5.146,4.237,1.759,1.424,3.51,2.86,5.313,4.227,2.432,1.844,4.912,3.625,7.366,5.44a.745.745,0,0,0,.942.048c1.9-1.182,3.885-2.22,5.87-3.25,2.392-1.241,4.8-2.462,7.25-3.578,2.036-.925,4.048-1.907,6.1-2.782,3.534-1.5,7.086-2.96,10.682-4.312,4.437-1.669,8.9-3.268,13.405-4.732q5.751-1.868,11.558-3.539,5.5-1.578,11.052-2.956c3.807-.944,7.623-1.844,11.457-2.672,2.85-.616,5.71-1.181,8.565-1.774,2.1-.435,4.214-.8,6.325-1.173,1.585-.282,3.172-.552,4.763-.8,1.87-.286,3.745-.533,5.617-.806,1.721-.251,3.437-.539,5.161-.767C219.835,166.426,221.8,166.213,223.766,165.98ZM26.758,92.493c.371-.741.624-1.339.954-1.892A42.353,42.353,0,0,1,33.87,82.87a79.948,79.948,0,0,1,6.319-5.711c1.924-1.6,3.909-3.109,5.924-4.585,3.92-2.87,7.99-5.517,12.132-8.049,3.963-2.423,8.015-4.7,12.125-6.859,3.318-1.745,6.638-3.492,10.054-5.046.194-.088.39-.2.351-.478a47.717,47.717,0,0,1-.5-5.15c-.061-1.987-.264-3.961-.157-5.964.111-2.078.2-4.152.413-6.224.14-1.352.331-2.7.6-4.019a56,56,0,0,1,2.834-9.873,52.128,52.128,0,0,1,3.471-7.128A57.514,57.514,0,0,1,91.9,7.315c1.334-1.682,2.883-3.156,4.272-4.784a1.18,1.18,0,0,0-.65.027A15.547,15.547,0,0,1,93.852,3c-3.023.633-5.992,1.465-8.938,2.379q-5.442,1.689-10.7,3.883-5.456,2.284-10.662,5.073a120.09,120.09,0,0,0-11.33,6.916c-2.787,1.913-5.5,3.93-8.094,6.084-2.216,1.836-4.393,3.728-6.483,5.7-1.741,1.647-3.437,3.346-5.057,5.123-1.461,1.6-2.913,3.208-4.313,4.862-1.546,1.826-3.058,3.677-4.456,5.619a1.864,1.864,0,0,0-.487.822c-.225,1.641-.467,3.278-.678,4.921-.3,2.368-.358,4.748-.478,7.122a63.294,63.294,0,0,0,.223,6.84c.109,1.9.325,3.784.521,5.675.2,1.929.515,3.839.836,5.745.444,2.641,1.039,5.256,1.69,7.855C25.838,89.2,26.289,90.766,26.758,92.493Z"/>
        <path class="cls-2" d="M241.044,115.147c.242,2.767.143,5.54.12,8.309-.016,1.93-.116,3.863-.262,5.788-.166,2.193-.356,4.388-.663,6.564-.3,2.1-.6,4.2-.988,6.293-.537,2.908-1.154,5.794-1.878,8.659q-1.125,4.449-2.629,8.786c-.51,1.469-1.1,2.913-1.559,4.4a1.323,1.323,0,0,1-1.388,1.027c-1.559.062-3.114.2-4.671.3-3.034.188-6.068.132-9.1.062-2.108-.049-4.224-.221-6.332-.453-1.67-.184-3.341-.371-5.009-.574s-3.358-.476-5.022-.792c-2.816-.535-5.623-1.119-8.406-1.814a154.788,154.788,0,0,1-15.5-4.792q-5.223-1.907-10.283-4.193c-3.524-1.59-6.992-3.3-10.388-5.162-2.766-1.517-5.508-3.071-8.2-4.715q-4.722-2.883-9.241-6.079c-2.05-1.452-4.08-2.929-6.07-4.462-1.449-1.115-2.876-2.261-4.287-3.425-1.7-1.4-3.373-2.829-5.045-4.261-.493-.422-.949-.888-1.438-1.319-1.013-.891-1.968-1.848-2.938-2.787-.672-.65-1.379-1.268-2.035-1.928-1.889-1.9-3.762-3.817-5.551-5.808-2.711-3.015-5.359-6.085-7.8-9.331q-1.7-2.266-3.362-4.561c-1.189-1.646-2.315-3.329-3.444-5.013C96.1,91.5,94.7,89.048,93.305,86.581c-1.278-2.269-2.447-4.593-3.568-6.94a105.475,105.475,0,0,1-4.063-9.784,96.363,96.363,0,0,1-3.106-10.581c-.515-2.189-.921-4.405-1.229-6.634q-.377-2.724-.547-5.471a49.163,49.163,0,0,1-.223-5.789c.122-2.133.208-4.268.467-6.4a62.319,62.319,0,0,1,1.618-8.464,48.215,48.215,0,0,1,2.49-7.092,51.51,51.51,0,0,1,4.967-8.867,59.063,59.063,0,0,1,4.147-5.2c.862-.974,1.855-1.808,2.7-2.787A2.468,2.468,0,0,1,98.57,2c2.241-.388,4.485-.783,6.743-1.045,1.455-.169,2.915-.331,4.38-.443,2.2-.167,4.411-.274,6.617-.4,2.6-.153,5.192-.109,7.784-.067,1.687.028,3.384.086,5.067.243,2.853.266,5.708.54,8.546.928,3.864.528,7.687,1.3,11.482,2.205.427.1.733.126.546.76a11.664,11.664,0,0,0-.4,3.326,22.776,22.776,0,0,0,.991,6.48,39.7,39.7,0,0,0,2.589,6.286,52.755,52.755,0,0,0,5.867,8.967c1.5,1.912,3.157,3.677,4.782,5.478,1.288,1.428,2.71,2.706,4.1,4.013,2.011,1.889,4.149,3.641,6.329,5.342q3.862,3.015,7.949,5.71c2.508,1.656,5.084,3.2,7.7,4.671,2.36,1.326,4.745,2.6,7.19,3.758q5.143,2.428,10.478,4.425a107.357,107.357,0,0,0,12.4,3.728,57.808,57.808,0,0,0,6.9,1.242c.7.082,1.4.24,2.113.256.385.009.49.331.616.593,1.126,2.34,2.194,4.707,3.154,7.118,1.228,3.083,2.323,6.215,3.319,9.382q1.688,5.361,2.827,10.862c.5,2.388.949,4.8,1.247,7.228.277,2.265.58,4.525.787,6.8C240.837,111.609,240.931,113.379,241.044,115.147Z"/>
        <path class="cls-2" d="M171.079,230.157a117.6,117.6,0,0,1-54.248,11c-32.979-1.262-61.187-13.765-83.857-37.741C10.164,179.291-.75,150.236.04,117.056c.584-24.5,8.319-46.765,22.578-66.731-.313,1.979-.458,3.97-.716,5.947a15.393,15.393,0,0,0-.114,2.008c.006,1.767-.217,3.525-.157,5.289.067,2,.121,4,.273,5.986.155,2.018.369,4.036.655,6.039.427,2.992.951,5.968,1.618,8.918.675,2.985,1.4,5.958,2.32,8.875,1.2,3.8,2.409,7.586,3.917,11.277,1,2.438,1.935,4.9,3.047,7.289,1.326,2.843,2.606,5.71,4.129,8.462.78,1.409,1.5,2.854,2.275,4.266q2.425,4.4,5.074,8.664c1.291,2.075,2.631,4.122,3.987,6.156,2.24,3.358,4.6,6.635,7.041,9.846,1.876,2.466,3.8,4.9,5.793,7.277,1.555,1.854,3.121,3.7,4.724,5.511,1.207,1.364,2.439,2.705,3.655,4.06,3.37,3.757,7.005,7.252,10.587,10.8,2.2,2.184,4.527,4.253,6.838,6.326,1.8,1.615,3.646,3.183,5.509,4.726q4.029,3.334,8.177,6.52,3.373,2.6,6.835,5.068,5.606,3.976,11.448,7.6c1.916,1.185,3.86,2.322,5.779,3.5,1.939,1.19,3.964,2.216,5.946,3.324,2.458,1.374,4.955,2.678,7.495,3.889,3.639,1.736,7.3,3.422,11.039,4.947q6.069,2.477,12.277,4.564C164.989,228.433,167.952,229.251,171.079,230.157Z"/>
        <path class="cls-3" d="M223.766,165.98c-1.964.233-3.931.446-5.892.706-1.724.228-3.44.516-5.161.767-1.872.273-3.747.52-5.617.806-1.591.244-3.178.514-4.763.8-2.111.376-4.226.738-6.325,1.173-2.855.593-5.715,1.158-8.565,1.774-3.834.828-7.65,1.728-11.457,2.672q-5.553,1.378-11.052,2.956-5.809,1.667-11.558,3.539c-4.509,1.464-8.968,3.063-13.4,4.732-3.6,1.352-7.148,2.808-10.682,4.312-2.057.875-4.069,1.857-6.1,2.782-2.455,1.116-4.858,2.337-7.25,3.578-1.985,1.03-3.969,2.068-5.87,3.25a.745.745,0,0,1-.942-.048c-2.454-1.815-4.934-3.6-7.366-5.44-1.8-1.367-3.554-2.8-5.313-4.227-1.727-1.4-3.449-2.8-5.146-4.237-1.208-1.02-2.37-2.094-3.553-3.144-2.585-2.3-5.1-4.662-7.608-7.044-1.725-1.641-3.4-3.325-5.082-5.009-1.583-1.586-3.119-3.222-4.625-4.882-2.066-2.277-4.137-4.555-6.112-6.911-2.5-2.988-4.96-6.018-7.337-9.113-3.487-4.54-6.769-9.22-9.891-14.013-1.5-2.3-2.886-4.68-4.343-7.012a.783.783,0,0,1,.169-1.159c2.086-1.994,4.253-3.894,6.437-5.78,3.021-2.609,6.151-5.078,9.342-7.47,2.15-1.612,4.351-3.155,6.548-4.7,1.3-.915,2.625-1.8,3.956-2.663,3.557-2.321,7.151-4.58,10.828-6.711,3.016-1.748,6.042-3.475,9.131-5.091,2.041-1.068,4.095-2.111,6.13-3.193.359-.191.5-.185.725.188,1.319,2.163,2.742,4.257,4.2,6.331,1.16,1.654,2.333,3.3,3.568,4.894q1.74,2.248,3.548,4.444c1.566,1.9,3.193,3.755,4.841,5.585,1.489,1.651,3.071,3.22,4.644,4.793,1.666,1.666,3.329,3.34,5.069,4.926q3.236,2.946,6.613,5.736,5.55,4.588,11.451,8.707,5.655,3.948,11.6,7.441c3.314,1.954,6.687,3.8,10.135,5.5A161.446,161.446,0,0,0,176.543,157q7.261,2.712,14.742,4.71c2.257.6,4.525,1.156,6.807,1.625,2.371.487,4.756.939,7.164,1.253,2.135.279,4.262.6,6.409.784,1.877.163,3.756.27,5.633.409C219.455,165.941,221.611,165.783,223.766,165.98Z"/>
        <path class="cls-3" d="M26.758,92.493c-.469-1.727-.92-3.289-1.315-4.866-.651-2.6-1.246-5.214-1.69-7.855-.321-1.906-.636-3.816-.836-5.745-.2-1.891-.412-3.775-.521-5.675a63.294,63.294,0,0,1-.223-6.84c.12-2.374.173-4.754.478-7.122.211-1.643.453-3.28.678-4.921a1.864,1.864,0,0,1,.487-.822c1.4-1.942,2.91-3.793,4.456-5.619,1.4-1.654,2.852-3.261,4.313-4.862,1.62-1.777,3.316-3.476,5.057-5.123,2.09-1.977,4.267-3.869,6.483-5.7,2.6-2.154,5.307-4.171,8.094-6.084a120.09,120.09,0,0,1,11.33-6.916q5.212-2.785,10.662-5.073,5.262-2.2,10.7-3.883C87.86,4.468,90.829,3.636,93.852,3a15.547,15.547,0,0,0,1.671-.445,1.18,1.18,0,0,1,.65-.027c-1.389,1.628-2.938,3.1-4.272,4.784a57.514,57.514,0,0,0-4.467,6.469,52.128,52.128,0,0,0-3.471,7.128,56,56,0,0,0-2.834,9.873c-.267,1.322-.458,2.667-.6,4.019-.214,2.072-.3,4.146-.413,6.224-.107,2,.1,3.977.157,5.964a47.717,47.717,0,0,0,.5,5.15c.039.279-.157.39-.351.478-3.416,1.554-6.736,3.3-10.054,5.046-4.11,2.162-8.162,4.436-12.125,6.859C54.1,67.057,50.033,69.7,46.113,72.574c-2.015,1.476-4,2.989-5.924,4.585A79.948,79.948,0,0,0,33.87,82.87,42.353,42.353,0,0,0,27.712,90.6C27.382,91.154,27.129,91.752,26.758,92.493Z"/>
        <path class="cls-3" d="M195.894,26.66a36.981,36.981,0,0,0-7.337-1.6c-2.006-.224-4.008-.372-6.027-.4-.8-.013-1.6-.128-2.4-.1-2.127.073-4.255.134-6.378.27-1.872.121-3.748.271-5.6.532-2.041.286-4.093.49-6.126.859-1.368.247-2.755.418-4.125.679-.23.043-.327-.084-.456-.264A42.847,42.847,0,0,1,150.877,14a28.241,28.241,0,0,1-.934-4.793,18.654,18.654,0,0,1,.278-4.953c.07-.483.3-.531.667-.428,4.313,1.209,8.586,2.528,12.778,4.126a124.909,124.909,0,0,1,13.27,6.008c3.219,1.68,6.33,3.554,9.382,5.528,2.744,1.775,5.368,3.717,8,5.654.588.433,1.116.949,1.671,1.426A.441.441,0,0,0,195.894,26.66Z"/>
      </g>
    </g>
  </g>
</svg>
