<svg xmlns="http://www.w3.org/2000/svg" xmlns:xlink="http://www.w3.org/1999/xlink" viewBox="0 0 479.325 361.548">
  <defs>
    <style>
      .cls-1, .cls-5 {
        fill: #4764ae;
      }

      .cls-1, .cls-3, .cls-7 {
        opacity: 0.1;
      }

      .cls-1, .cls-14, .cls-18, .cls-31, .cls-7 {
        isolation: isolate;
      }

      .cls-2 {
        fill: #fff;
      }

      .cls-31, .cls-4 {
        opacity: 0.2;
      }

      .cls-6 {
        fill: #fcd1c6;
      }

      .cls-8 {
        fill: #626696;
      }

      .cls-9 {
        fill: #f9cde0;
      }

      .cls-10 {
        fill: #995c7e;
      }

      .cls-11 {
        fill: url(#Dégradé_sans_nom_2);
      }

      .cls-12 {
        fill: #cd818c;
      }

      .cls-13 {
        fill: #454053;
      }

      .cls-14, .cls-27 {
        opacity: 0.05;
      }

      .cls-15 {
        fill: #f2738f;
      }

      .cls-16, .cls-18 {
        fill: #585989;
      }

      .cls-17 {
        fill: #dce5f1;
      }

      .cls-18 {
        opacity: 0.5;
      }

      .cls-19 {
        fill: #68647e;
      }

      .cls-20 {
        fill: #595369;
      }

      .cls-21 {
        fill: #e4aab4;
      }

      .cls-22 {
        fill: #ffd139;
      }

      .cls-23 {
        fill: #66617d;
      }

      .cls-24 {
        fill: #9d9cb4;
      }

      .cls-25 {
        fill: url(#Dégradé_sans_nom_2-2);
      }

      .cls-26 {
        fill: #2d293d;
      }

      .cls-28 {
        fill: #facdd3;
      }

      .cls-29 {
        fill: #666691;
      }

      .cls-30 {
        fill: #a9a8a9;
      }
    </style>
    <linearGradient id="Dégradé_sans_nom_2" data-name="Dégradé sans nom 2" x1="-19.547" y1="677.515" x2="-19.547" y2="678.515" gradientTransform="matrix(90.796, 0, 0, -176.53, 2147.291, 119798.241)" gradientUnits="userSpaceOnUse">
      <stop offset="0" stop-color="gray" stop-opacity="0.251"/>
      <stop offset="0.54" stop-color="gray" stop-opacity="0.122"/>
      <stop offset="1" stop-color="gray" stop-opacity="0.102"/>
    </linearGradient>
    <linearGradient id="Dégradé_sans_nom_2-2" x1="-19.555" y1="677.625" x2="-19.555" y2="678.625" gradientTransform="matrix(94.382, 0, 0, -200.484, 2107.181, 136204.368)" xlink:href="#Dégradé_sans_nom_2"/>
  </defs>
  <title>team</title>
  <g id="Calque_2" data-name="Calque 2">
    <g id="Calque_1-2" data-name="Calque 1">
      <g id="undraw_work_chat_erdt" data-name="undraw work chat erdt">
        <path id="Tracé_496" data-name="Tracé 496" class="cls-1" d="M295.2,49.516c-20.567,17.459-47.245,16.329-70.623,7.244S179.729,31.506,156.95,20.006A189.868,189.868,0,0,0,97.529,1.23C68.5-2.8,36.08,2.119,15.855,30.33-6.669,61.761-4.939,118.452,19.413,147.286c12.394,14.675,28.621,21.879,42.771,33.353s27.256,30.489,26.051,52.608c-1.116,20.456-14.088,36.185-27.514,46.044-10.375,7.618-23.151,15.938-24.4,31.721-1.21,15.267,9.534,27.234,19.794,34.037,33.468,22.2,74.71,21.982,108.062-.56,11.891-8.045,22.813-18.744,35.287-25,32.752-16.454,68.844.107,103.526,6.168a172.272,172.272,0,0,0,88.051-7.773c17.174-6.15,34.415-15.565,46.48-33.068,8.7-12.63,14.124-28.616,19.211-44.4q8.139-25.246,15.649-50.856c3-10.25,5.959-20.7,6.737-31.658,1.405-19.869-4.518-39.512-12.585-56.277-19.148-39.814-51.4-67.814-86.343-74.922S308.3,33.475,281.2,63.866"/>
        <ellipse id="Ellipse_32" data-name="Ellipse 32" class="cls-1" cx="217.705" cy="236.815" rx="100.938" ry="4.607"/>
        <path id="Tracé_497" data-name="Tracé 497" class="cls-2" d="M214.317,217.79a91.511,91.511,0,1,1,91.5-91.522v.011A91.612,91.612,0,0,1,214.317,217.79Zm0-182.132a90.621,90.621,0,1,0,90.621,90.621A90.621,90.621,0,0,0,214.317,35.658Z"/>
        <path id="Tracé_498" data-name="Tracé 498" class="cls-2" d="M214.317,197.255a70.974,70.974,0,1,1,70.974-70.974A70.974,70.974,0,0,1,214.317,197.255Zm0-141.059A70.085,70.085,0,1,0,284.4,126.281h0A70.166,70.166,0,0,0,214.317,56.2Z"/>
        <path id="Tracé_499" data-name="Tracé 499" class="cls-2" d="M214.317,175.2a48.917,48.917,0,1,1,48.917-48.917h0A48.917,48.917,0,0,1,214.317,175.2Zm0-96.945a48.028,48.028,0,1,0,48.028,48.028,48.028,48.028,0,0,0-48.028-48.028Z"/>
        <ellipse id="Ellipse_33" data-name="Ellipse 33" class="cls-1" cx="435.8" cy="179.284" rx="6.346" ry="2.099"/>
        <ellipse id="Ellipse_34" data-name="Ellipse 34" class="cls-1" cx="79.399" cy="289.863" rx="37.373" ry="6.132"/>
        <g id="Groupe_205" data-name="Groupe 205" class="cls-3">
          <path id="Tracé_500" data-name="Tracé 500" d="M144.912,119.943H30.9a5.977,5.977,0,0,0-5.959,5.959v72.042A5.977,5.977,0,0,0,30.9,203.9h89.443s2.317,12.3-5.3,13.626c0,0,17.05,1.223,14.07-13.626h15.8a5.976,5.976,0,0,0,5.959-5.959V125.9A5.976,5.976,0,0,0,144.912,119.943Z"/>
          <g id="Groupe_204" data-name="Groupe 204" class="cls-4">
            <path id="Rectangle_109" data-name="Rectangle 109" d="M44.534,139.065h86.734a2.815,2.815,0,0,1,2.815,2.815h0a2.815,2.815,0,0,1-2.815,2.815H44.534a2.815,2.815,0,0,1-2.815-2.815h0A2.815,2.815,0,0,1,44.534,139.065Z"/>
            <path id="Rectangle_110" data-name="Rectangle 110" d="M44.534,164.226h86.734a2.815,2.815,0,0,1,2.815,2.815h0a2.815,2.815,0,0,1-2.815,2.815H44.534a2.815,2.815,0,0,1-2.815-2.815h0A2.815,2.815,0,0,1,44.534,164.226Z"/>
            <path id="Rectangle_111" data-name="Rectangle 111" d="M44.534,176.8h71.828a2.815,2.815,0,0,1,2.815,2.815h0a2.815,2.815,0,0,1-2.815,2.815H44.534a2.815,2.815,0,0,1-2.815-2.815h0A2.815,2.815,0,0,1,44.534,176.8Z"/>
            <path id="Rectangle_112" data-name="Rectangle 112" d="M44.534,151.646h34.42a2.815,2.815,0,0,1,2.815,2.815h0a2.815,2.815,0,0,1-2.815,2.815H44.534a2.815,2.815,0,0,1-2.815-2.815h0A2.815,2.815,0,0,1,44.534,151.646Z"/>
          </g>
        </g>
        <path id="Tracé_501" data-name="Tracé 501" class="cls-2" d="M145.908,119.445H31.887a5.977,5.977,0,0,0-5.959,5.959v72.042a5.977,5.977,0,0,0,5.959,5.959H121.33s2.321,12.3-5.3,13.621c0,0,17.05,1.223,14.07-13.621h15.8a5.971,5.971,0,0,0,5.955-5.959V125.4a5.971,5.971,0,0,0-5.955-5.959Z"/>
        <g id="Groupe_206" data-name="Groupe 206" class="cls-4">
          <path id="Rectangle_113" data-name="Rectangle 113" class="cls-5" d="M45.531,138.567h86.734a2.815,2.815,0,0,1,2.815,2.815h0a2.815,2.815,0,0,1-2.815,2.815H45.531a2.815,2.815,0,0,1-2.815-2.815h0A2.815,2.815,0,0,1,45.531,138.567Z"/>
          <path id="Rectangle_114" data-name="Rectangle 114" class="cls-5" d="M45.531,163.728h86.734a2.815,2.815,0,0,1,2.815,2.815h0a2.815,2.815,0,0,1-2.815,2.815H45.531a2.815,2.815,0,0,1-2.815-2.815h0A2.815,2.815,0,0,1,45.531,163.728Z"/>
          <path id="Rectangle_115" data-name="Rectangle 115" class="cls-5" d="M45.531,176.309h71.828a2.815,2.815,0,0,1,2.815,2.815h0a2.815,2.815,0,0,1-2.815,2.815H45.531a2.815,2.815,0,0,1-2.815-2.815h0A2.815,2.815,0,0,1,45.531,176.309Z"/>
          <path id="Rectangle_116" data-name="Rectangle 116" class="cls-5" d="M45.531,151.148h34.42a2.815,2.815,0,0,1,2.815,2.815h0a2.815,2.815,0,0,1-2.815,2.815H45.531a2.815,2.815,0,0,1-2.815-2.815h0A2.815,2.815,0,0,1,45.531,151.148Z"/>
        </g>
        <path id="Tracé_502" data-name="Tracé 502" class="cls-6" d="M103.587,118.3l-6.319,13.439a11.486,11.486,0,0,1-1.534,2.988c-.6.467-3.255,8.449-3.255,8.449l-6.773,10.468h0l-.445.712-2.668-.734-1.863-6.968.116-2.023v-.253s4.194-4.385,5.123-4.718c0,0,.729.085,2.13-3.313s2.668-4.136,2.668-4.136l.729-2.464,7.853-12.5s6.582-9.441,8.374-5.252S103.587,118.3,103.587,118.3Z"/>
        <path id="Tracé_503" data-name="Tracé 503" class="cls-6" d="M77.345,213.757a1.511,1.511,0,0,1-.213.645c-.729,1.063-4.852,22.809-4.852,22.809.329,1.468-.6,4.394-1.2,5.723a82.517,82.517,0,0,0-1.93,8.245s-.329,14.9-1.192,17.223.276,7.315.276,7.315c-.085,2.3,1.294,4.718,2.112,5.954.062.08.111.16.16.227.267.382.445.6.445.6a3.485,3.485,0,0,0,.929,1.152c.058.049.12.093.187.142a10.593,10.593,0,0,0,3.727,1.574l.129.027c.534.12.889.165.889.165l.329,1.779-3.522.729-6.715.445s-7.916.6-6.119-2.926a5.55,5.55,0,0,0,.325-.747h0c.067-.169.129-.347.182-.525a18.244,18.244,0,0,0,.351-7.507L60.1,264.821c-2.521-11.171,1.992-23.609,1.992-23.609s-.4-1,.471-3.522,0-8.045,0-8.045S62.113,222.53,61.5,219a21.58,21.58,0,0,1-.24-4.478,22.6,22.6,0,0,1,.24-2.624l15.164-2.01A11.69,11.69,0,0,1,77.345,213.757Z"/>
        <path id="Tracé_504" data-name="Tracé 504" class="cls-7" d="M77.127,287.36l-3.522.729-6.715.445s-7.916.6-6.119-2.926a5.5,5.5,0,0,0,.325-.747h0c.067-.169.129-.347.182-.525a12.173,12.173,0,0,1,4,.809c2.255.889,3.953-1.4,3.953-1.4l1.094-2.09.16-.3c.267.382.445.6.445.6a3.56,3.56,0,0,0,1.116,1.29l-.187.391L70.8,285.86s1.361.138,3.224.445a1.441,1.441,0,0,0,1.752-.961l.129.027c.534.12.889.164.889.164Z"/>
        <path id="Tracé_505" data-name="Tracé 505" class="cls-8" d="M80.386,289.019c-.267,1.2-7.68,1.565-7.68,1.565s-4.127-.4-5.283.565-4.563.734-4.7.734-1.926-.071-2.628-3.291c-.68-3.14.916-3.687,1-3.713h0a12.059,12.059,0,0,1,4.194.814c2.255.889,3.953-1.4,3.953-1.4l1.254-2.4c.267.382.445.6.445.6a3.52,3.52,0,0,0,1.116,1.294l-1.25,2.628s1.361.138,3.224.445a1.536,1.536,0,0,0,1.881-1.463,1.335,1.335,0,0,0,0-.2s1.161.333,2.588.734A2.667,2.667,0,0,1,80.386,289.019Z"/>
        <path id="Tracé_506" data-name="Tracé 506" class="cls-6" d="M94.355,229.606c-.178,1.063-.36,3.816-.36,3.816.623,2.3-.974,7.778-.974,7.778l-.8,3.113c.356,4-2.192,13.746-2.192,13.746s-1.708,9.045-2.6,12.95a10.771,10.771,0,0,0,.445,6.519c.044.107.071.16.071.16a.781.781,0,0,0,.053.218c.022.071.058.214.093.316a4.815,4.815,0,0,0,.889,1.485,4.58,4.58,0,0,0,.476.489l.027.027a9.644,9.644,0,0,0,2.828,1.739h0l.445.178a13.479,13.479,0,0,0,1.41.445h0a1.477,1.477,0,0,0,.16.036l-.36,2.09-4.7-1.2-6.293-2.041-3.113-1.779s.036-.169.1-.494v-.053c.027-.138.053-.3.093-.489.529-2.713,1.734-10.406,1.13-16.054-.752-7,2.166-16.672,2.877-18.975a11.48,11.48,0,0,0,.534-4.078c-1.156-1.69-1.423-8.423-1.423-8.423s-2.126-4.349-3.887-8.961a23.641,23.641,0,0,1-1.267-4.66,16.339,16.339,0,0,1-.258-3.406s14.284-13.034,15.849-.414c.053.445.1.836.151,1.236C95.136,226.454,94.524,228.579,94.355,229.606Z"/>
        <path id="Tracé_507" data-name="Tracé 507" class="cls-7" d="M94.355,282.633l-.36,2.09-4.7-1.2L83,281.482,79.889,279.7s.036-.169.1-.494v-.053c.027-.138.053-.3.093-.489l.445-.044h.036a5.921,5.921,0,0,1,2.637.356c1.023.387,2.366.827,2.642.64a3.365,3.365,0,0,1,1.508-.267L88,277.92l.093-.218a4.766,4.766,0,0,0,.889,1.485,5.187,5.187,0,0,0,.5.516l-.027.507-.036.716a9.146,9.146,0,0,0,2.259,1.045,1.32,1.32,0,0,0,.631,0h0l.445.178a13.479,13.479,0,0,0,1.41.445h0A1.515,1.515,0,0,0,94.355,282.633Z"/>
        <path id="Tracé_508" data-name="Tracé 508" class="cls-8" d="M92.024,287.092c-1.312-.378-4.474-.978-4.985-.511s-4.892,0-4.892,0a2.669,2.669,0,0,1-2.264-1.334c-.889-1.419-.173-6.008-.173-6.008l.325-.031.543-.053h.036a5.865,5.865,0,0,1,2.637.356c1.023.383,2.366.823,2.642.64a3.309,3.309,0,0,1,1.508-.267l.747-1.65a4.815,4.815,0,0,0,.889,1.485,5.187,5.187,0,0,0,.5.516l-.062,1.223a9.2,9.2,0,0,0,2.259,1.041.888.888,0,0,0,1.085-.342.643.643,0,0,0,.08-.182h0a7.627,7.627,0,0,0,1.854.618h0a3.4,3.4,0,0,1,3.62,2.606C99.04,287.235,93.309,287.466,92.024,287.092Z"/>
        <path id="Tracé_509" data-name="Tracé 509" class="cls-7" d="M77.349,213.758c-.294.085-.56.165-.809.245a11.214,11.214,0,0,1-1.961.414c-4.194.591-11.118.236-13.31.1a22.6,22.6,0,0,1,.24-2.624l15.164-2.01A11.871,11.871,0,0,1,77.349,213.758Z"/>
        <path id="Tracé_510" data-name="Tracé 510" class="cls-8" d="M90.566,210.075s-5.568.863-10.095,1.854c-1.512.329-2.908.672-3.94,1.009a12.147,12.147,0,0,1-1.961.414c-5.043.707-14,.053-14,.053-2.459-7.978,2.988-18.024,2.988-18.024-.129-.8,1.134-3.255,1.134-3.255l.022-.08.774-2.846H86.171l.253,1.223.525,2.49L90.2,208.331Z"/>
        <path id="Tracé_511" data-name="Tracé 511" class="cls-7" d="M93.768,214.914l-.125.053-2.419,1.072c-2.619,1.21-10.459,1.436-13.2,1.459a16.339,16.339,0,0,1-.258-3.406s14.284-13.034,15.849-.414C93.67,214.126,93.719,214.513,93.768,214.914Z"/>
        <path id="Tracé_512" data-name="Tracé 512" class="cls-8" d="M94.149,213.682l-.507.222-2.419,1.076c-2.668,1.227-10.757,1.445-13.341,1.459H77.2a3.116,3.116,0,0,1-2.392-1.454c0-.16-.125-.947-.231-1.623-.089-.542-.169-1.009-.169-1.009a62.13,62.13,0,0,1-8.045-4.167c-2.032-1.383-1.521-11.211-1.125-16.152.138-1.7.258-2.824.258-2.824l20.937,1.223,2.935.169,1.681.374.445.093s1.2,8.778,1.779,9.508.2,3.193.133,4.594a8.517,8.517,0,0,1-.2,1.779,10.962,10.962,0,0,1,.658,3.842A7.693,7.693,0,0,0,94.149,213.682Z"/>
        <circle id="Ellipse_35" data-name="Ellipse 35" class="cls-6" cx="71.741" cy="132.203" r="8.578"/>
        <path id="Tracé_513" data-name="Tracé 513" class="cls-6" d="M67.567,135.783s.6,8.125-1.063,9.988a73.958,73.958,0,0,1-5.986,5.385l1.334,5.519,7.515.867,8.778-9.379-2-2.459s-1.53-5.19-.267-7.782S67.567,135.783,67.567,135.783Z"/>
        <path id="Tracé_514" data-name="Tracé 514" class="cls-7" d="M85.705,153.647h0l-.445.712-2.668-.734-1.863-6.969.116-2.023.547-.787s2.926.071,2.8,2.73C84.06,148.911,85.389,152.758,85.705,153.647Z"/>
        <path id="Tracé_515" data-name="Tracé 515" class="cls-7" d="M91.49,192.127s-2.117.471-4.54.787-5.221.476-6.368-.191c-1.926-1.138-12.358-.814-15.351-.7a3.428,3.428,0,0,0-.516.022l.774-2.846H86.172l.253,1.223,2.935.169,1.681.374C91.325,191.651,91.49,192.127,91.49,192.127Z"/>
        <path id="Tracé_516" data-name="Tracé 516" class="cls-9" d="M80.853,144.375s2.926.067,2.793,2.726,1.6,7.249,1.6,7.249l-.667,1.53s-.929,3.722-.2,4.656,3.393.929,1.863,8.578c0,0-.329,5.719.467,7.582s.8,6.315,1.992,8.178a44.9,44.9,0,0,1,2.8,6.186s-8.649,1.926-10.909.6-16.16-.654-16.16-.654.067-2.33,0-2.593a2.226,2.226,0,0,1,.334-1.7c.445-.632,1.2-1.694.8-2.624s1-2.3.267-3.744-1.623-1.73-1.445-2.517a3.407,3.407,0,0,0-.814-2.517c-.529-.663-4.127-7.693-4.127-7.693l-.6-3.3s-4.629-3.393-4.545-4.99,1.752-3.807,1.752-3.807L60.5,151.15s2.459,2.668,4.852,1.73,7.555-5.385,7.555-5.385,1.841-1,1.974-1.725,1.255-.065,1.255-.065,1.663-.912,2-.591a5.772,5.772,0,0,0,1.779.591Z"/>
        <path id="Tracé_517" data-name="Tracé 517" class="cls-6" d="M55.715,158.227,54.3,159.334a18.953,18.953,0,0,0-1.779,7.249,99.343,99.343,0,0,1-1.779,11.233l-2.793,4.994s-4.6,9.637-5.2,12.194-3.326,6.884-3.326,6.884-9.245,8.307-2.793,9.783,6.648-6.613,6.648-6.613a8.722,8.722,0,0,0,1.752-2.793c.245-1.13,8.423-15.6,8.423-15.6s2.864-3.891,2.264-5.95c0,0,3.722-8.756,3.722-10.953a38.783,38.783,0,0,0-.6-5.448l.6-4.589Z"/>
        <path id="Tracé_518" data-name="Tracé 518" class="cls-7" d="M74.867,176.563s-6.519,3.411-7.782,3.589,5.519-.712,5.519-.712Z"/>
        <path id="Tracé_519" data-name="Tracé 519" class="cls-7" d="M80.187,179.222s-8.645,2.926-12.452,2.393C67.755,181.612,77.194,183.412,80.187,179.222Z"/>
        <path id="Tracé_520" data-name="Tracé 520" class="cls-7" d="M80.72,180.178s-7.782,4.892-12.372,4.1c0,0,10.708,2.13,12.372,1l-4.789-1.334S81.253,181.13,80.72,180.178Z"/>
        <path id="Tracé_521" data-name="Tracé 521" class="cls-7" d="M71.755,117.11a8.1,8.1,0,0,0-6.546,1.236c-1.334,1.049-2.224,2.668-3.722,3.433a21.732,21.732,0,0,1-2.433.858,7.017,7.017,0,0,0-4.282,7.56c.236,1.334.854,2.535,1.156,3.833a14.977,14.977,0,0,1-.525,7.062A74.291,74.291,0,0,1,48,159.427a1.927,1.927,0,0,0-.369,1.232,1.8,1.8,0,0,0,.445.787c3.073,3.558,8.076,4.772,12.772,4.932a9.672,9.672,0,0,0,5.061-.84,7.64,7.64,0,0,0,2.468-2.264,12,12,0,0,0,2.3-7.742c-.129-2.224-.889-4.487-.316-6.644a1.786,1.786,0,0,1,.4-.814c.507-.516,1.334-.382,2.063-.467,1.952-.227,3.215-2.286,3.446-4.234s-.258-3.918-.267-5.879a12.323,12.323,0,0,1,2.317-7.24,7.8,7.8,0,0,0,1.7-2.9c.276-1.4-.538-2.432-1.241-3.558-1.09-1.725-1.623-3.74-3.282-5.056A8.846,8.846,0,0,0,71.755,117.11Z"/>
        <path id="Tracé_522" data-name="Tracé 522" class="cls-10" d="M71.221,116.576a8.088,8.088,0,0,0-6.546,1.241c-1.334,1.045-2.223,2.668-3.722,3.433a21.433,21.433,0,0,1-2.428.854,7.023,7.023,0,0,0-4.287,7.56c.236,1.334.854,2.535,1.161,3.838a15.008,15.008,0,0,1-.525,7.057,74.321,74.321,0,0,1-7.391,18.335,1.887,1.887,0,0,0-.365,1.227,1.725,1.725,0,0,0,.445.787c3.077,3.558,8.076,4.772,12.772,4.932A9.671,9.671,0,0,0,65.4,165a7.663,7.663,0,0,0,2.468-2.268,12.006,12.006,0,0,0,2.29-7.724c-.129-2.224-.889-4.487-.311-6.648a1.786,1.786,0,0,1,.4-.814c.507-.516,1.334-.382,2.068-.445,1.952-.227,3.211-2.286,3.442-4.238s-.253-3.913-.267-5.879a12.32,12.32,0,0,1,2.312-7.262,7.754,7.754,0,0,0,1.694-2.9c.276-1.4-.534-2.428-1.236-3.558-1.09-1.725-1.623-3.74-3.286-5.052A8.813,8.813,0,0,0,71.221,116.576Z"/>
        <path id="Tracé_523" data-name="Tracé 523" class="cls-7" d="M68.348,199.727s1.708,7.978,4.545,10.153Z"/>
        <g id="Groupe_207" data-name="Groupe 207" class="cls-3">
          <path id="Tracé_524" data-name="Tracé 524" d="M54.746,131.443c-.089-.311-.191-.623-.3-.929C54.535,130.825,54.637,131.134,54.746,131.443Z"/>
          <path id="Tracé_525" data-name="Tracé 525" d="M79.007,124.479a2.872,2.872,0,0,1-.036.752,7.865,7.865,0,0,1-1.7,2.9,12.283,12.283,0,0,0-2.317,7.235c0,1.966.494,3.927.262,5.879s-1.49,4-3.442,4.238c-.72.085-1.561-.053-2.063.445a1.786,1.786,0,0,0-.4.814c-.565,2.161.187,4.42.311,6.648a12,12,0,0,1-2.286,7.724,7.706,7.706,0,0,1-2.468,2.268,9.949,9.949,0,0,1-5.065.836c-4.616-.156-9.525-1.334-12.612-4.763a1.228,1.228,0,0,0-.076.64,1.725,1.725,0,0,0,.445.787c3.077,3.558,8.076,4.772,12.772,4.932a9.671,9.671,0,0,0,5.061-.836,7.706,7.706,0,0,0,2.468-2.268,12.006,12.006,0,0,0,2.29-7.724c-.129-2.224-.889-4.487-.311-6.648a1.786,1.786,0,0,1,.4-.814c.507-.516,1.334-.382,2.068-.445,1.952-.227,3.211-2.286,3.442-4.238s-.253-3.913-.267-5.879a12.319,12.319,0,0,1,2.312-7.235,7.754,7.754,0,0,0,1.694-2.9A3.294,3.294,0,0,0,79.007,124.479Z"/>
        </g>
        <path id="Tracé_526" data-name="Tracé 526" class="cls-5" d="M231.807,339.741s-16.921-1.023-14.924,10.833a2.893,2.893,0,0,0,1.5,3.046s.031-.889,1.734-.578a7.8,7.8,0,0,0,1.837.089,3.832,3.832,0,0,0,2.25-.929h0s4.754-1.966,6.6-9.739c0,0,1.37-1.694,1.334-2.13l-2.855,1.219a5.115,5.115,0,0,1,.2,3.771s-.089-3.7-.64-3.607c-.111,0-1.481.711-1.481.711s1.677,3.589.409,6.195c0,0,.48-4.42-.934-5.932l-2.01,1.17s1.961,3.709.631,6.733c0,0,.342-4.638-1.054-6.444l-1.823,1.419s1.846,3.651.72,6.159c0,0-.147-5.4-1.116-5.781a10.952,10.952,0,0,0-1.832,1.979s1.258,2.668.476,4.051c0,0-.48-3.6-.889-3.611a11.98,11.98,0,0,0-1.752,4,8.666,8.666,0,0,1,1.365-4.247,4.762,4.762,0,0,0-2.428,1.259s.245-1.685,2.819-1.832a12.2,12.2,0,0,1,1.663-1.917,10.431,10.431,0,0,0-4.114.476s1.365-1.592,4.585-.889l1.779-1.467s-3.371-.445-4.8.049c0,0,1.645-1.41,5.287-.382l1.957-1.174a17.791,17.791,0,0,0-4.585-.4s1.8-.974,5.159.085l1.4-.631s-2.108-.414-2.722-.476-.649-.236-.649-.236a7.269,7.269,0,0,1,3.953.445A18.01,18.01,0,0,0,231.807,339.741Z"/>
        <ellipse id="Ellipse_36" data-name="Ellipse 36" class="cls-1" cx="220.152" cy="354.656" rx="11.976" ry="2.023"/>
        <path id="Tracé_527" data-name="Tracé 527" class="cls-5" d="M364.373,325.244s-16.9-1.018-14.924,10.837a2.893,2.893,0,0,0,1.5,3.046s.031-.889,1.734-.583a7.828,7.828,0,0,0,1.841.089,3.8,3.8,0,0,0,2.249-.932h0s4.758-1.961,6.6-9.734c0,0,1.37-1.7,1.334-2.135l-2.873,1.245a5.126,5.126,0,0,1,.209,3.771s-.093-3.7-.64-3.611c-.111,0-1.485.712-1.485.712s1.677,3.589.414,6.2c0,0,.48-4.42-.938-5.937l-2.01,1.174s1.961,3.7.631,6.728c0,0,.342-4.638-1.054-6.444l-1.819,1.41s1.841,3.655.716,6.164c0,0-.147-5.4-1.112-5.808a11.181,11.181,0,0,0-1.837,1.983s1.263,2.668.48,4.047c0,0-.48-3.593-.889-3.611a11.971,11.971,0,0,0-1.752,4,8.658,8.658,0,0,1,1.37-4.247,4.785,4.785,0,0,0-2.432,1.259s.249-1.681,2.824-1.832a12.2,12.2,0,0,1,1.663-1.917,10.451,10.451,0,0,0-4.118.476s1.37-1.592,4.585-.867l1.779-1.467s-3.375-.445-4.8.049c0,0,1.645-1.405,5.287-.382l1.957-1.17a17.6,17.6,0,0,0-4.589-.4s1.805-.974,5.163.08l1.4-.627s-2.108-.413-2.726-.48-.649-.236-.649-.236a7.288,7.288,0,0,1,3.958.445A18.039,18.039,0,0,0,364.373,325.244Z"/>
        <ellipse id="Ellipse_37" data-name="Ellipse 37" class="cls-1" cx="352.721" cy="340.159" rx="11.976" ry="2.023"/>
        <ellipse id="Ellipse_38" data-name="Ellipse 38" class="cls-1" cx="377.145" cy="194.258" rx="34.487" ry="5.657"/>
        <path id="Tracé_528" data-name="Tracé 528" class="cls-11" d="M417.3,82.713a18.5,18.5,0,0,0,0-9.454V68.812s1.61-8.721-5.559-14.315L406.979,50.3s-2.668-2.286-3.438-2.433a3.486,3.486,0,0,0-.445-.067l-.142-.08a14.414,14.414,0,0,1-1.041-2.192,2.032,2.032,0,0,0,1.694-.578,2.211,2.211,0,0,0,.4-.667h0c.276-.618.32-1.365.556-2.023a4.727,4.727,0,0,1,.889-1.454c-.049.08-.1.156-.142.236.671-.836,1.552-1.556,2.179-2.441a5.147,5.147,0,0,0,.347-.543l-.094.111a12.2,12.2,0,0,0,1.4-4.749,4.268,4.268,0,0,0,.027-1.7,5.647,5.647,0,0,0-.476-1.076c-1.032-2.135-1.009-4.812-2.668-6.515-1.241-1.276-3.113-1.668-4.892-1.886a12.619,12.619,0,0,1-5.154-1.272,5.585,5.585,0,0,0-1.4-.769,1.152,1.152,0,0,0-1.374.511.882.882,0,0,1-.182.369.591.591,0,0,1-.529.031l-2.357-.631.027.12h-.058l.085.374a.207.207,0,0,1,.222.129l-.378.583a5.862,5.862,0,0,1-2.13-.445,1.122,1.122,0,0,0,0,.116h-.026c-.044.667.712,1.1.943,1.725a1.3,1.3,0,0,1,0,.845,1.909,1.909,0,0,1-.445.676c-.84.827-1.908.663-2.873,1.187a.616.616,0,0,0-.351.387.3.3,0,0,0-.031.213.507.507,0,0,0,.2.245,4.492,4.492,0,0,0,.916.569l-.276.267a10.557,10.557,0,0,0,3.647,17.214c.036.182.062.369.089.569v.053l.027.253-3.18,1.334a2.531,2.531,0,0,1-2.277-1.463c-.738-1.53-3.349,0-3.349,0s-7.974-.6-10.922.867c0,0-4.758-2-5.425-2.13s-1.677-.667-2.148-.534-1.072-.889-1.4-.8-.445-.663-1.539-.929-1.476.067-2.668-1.134-10.989-5.923-10.989-5.923l-4.42-3.6-4.692-3.727-.084.156c-.027-.111-.058-.227-.089-.347a44.393,44.393,0,0,0-1.739-5.47c-.3-.72-.445-1.632-.84-1.152-.249.289-.676-.342-1.334-.769a1.106,1.106,0,0,0-1.541.275,1.136,1.136,0,0,0-.113.2h0c-3.651,5.723-4.958,6.137-2.842,8.231,1.881,1.868,3.135,3.518,4.674,4l.182.058a.28.28,0,0,1-.1,0l8.894,10.651s6.43,5.594,10.855,7.391,4.087,2.33,4.087,2.33,13.4,6.791,15.476,6.671,1.677,13.915.8,16.178-2.277,18.642-2.277,18.642-1.334,3.46.067,5.857a36.862,36.862,0,0,1,.031,5.688,19.527,19.527,0,0,0-3.246,8.36,4.537,4.537,0,0,1-.053.507,1.158,1.158,0,0,1-.316.258s.116-.027.3-.089a16.876,16.876,0,0,1-.889,4,16.332,16.332,0,0,0-1.094,5.781v10.588l-.885,6.559s-1.072,4.967,0,6.124a2.811,2.811,0,0,1,.587,2.041,3.788,3.788,0,0,0,.685,2.379,1.8,1.8,0,0,1,.445,1.53c-.356,1.152.525,13.4.525,13.4s-.258,3.375-.614,3.558.6,3.878.6,3.878-3.62,3.02-2.7,4.62l.925,1.419-.245.24-.151.151a1.409,1.409,0,0,0-.921-.173,34.469,34.469,0,0,1-3.642,3.242,39.407,39.407,0,0,1-6.075,2.886l-3.5.285h-.067s-1.677-.156-.738,2.441,9.339,1.779,9.339,1.779l4.892-.774s8.752.04,11.255-.511c1.049-.236,1.3-.792,1.232-1.361h0l-.027-.027a3.5,3.5,0,0,0-.716-1.472.557.557,0,0,0-.062-.076l.16-1.779c3.713-2.139-1.049-6.35-1.049-6.35a42.467,42.467,0,0,1,2.468-4.7c.841-1.143.836-18.108.836-18.108s.445-6.128-.716-7.56a2.556,2.556,0,0,1,1.25-2.308c.827-.565,3.326-8.343,5.287-14.8l1.236,7.609s-.267,3.638.538,4.7a1.8,1.8,0,0,1,.329,1.414,6.3,6.3,0,0,0,.182,3.082,2,2,0,0,0,.645,1.094c.716.356.76,1.623,1.027,1.89s1.921-.378,2.01.6a21.688,21.688,0,0,1,0,2.575l.538,15.8s-.889,1.334-1.072,4.794a6.19,6.19,0,0,1-.645,2.828,1.447,1.447,0,0,0,.133,1.7l.156.178-.663.511a1.445,1.445,0,0,0-.409,1.779,1.428,1.428,0,0,0-.424,1.533,1.878,1.878,0,0,0,.116.249,2.5,2.5,0,0,0-1.334.658,10.924,10.924,0,0,1-2.357,2.375,44.863,44.863,0,0,0-3.762,3.22,5.4,5.4,0,0,1-2.2,1.779,3.567,3.567,0,0,1-.663.2c-1.779.36-1.2,2.2.222,2.49s6.164,1.752,9.85.889a3.442,3.442,0,0,0,2.7-.374,37.085,37.085,0,0,1,5.259-1.786s2.01,0,2.277-.8a3.057,3.057,0,0,0,.116-.778l.058-.053-.053-.049a10.392,10.392,0,0,0-.138-1.779c-.049-.3-.107-.578-.16-.8-.174-.667-.489-1.525-.627-1.89a.579.579,0,0,0,.062-.093c.765-1.294-.507-4.447-.507-4.447a8.515,8.515,0,0,1,1.516-1.779c.716-.529,2.593-14.377,2.593-14.377s-.089-3.558.889-5.15S400,150.578,400,150.578s-.983-2.224-.623-3.02-.36-3.727-.36-3.727v-3.5a3.819,3.819,0,0,0-.2-1.227,5.839,5.839,0,0,1-.24-3.558c.627-1.6,2.055-11.451,2.055-11.451s-1.116-4.345.516-7.8a7.516,7.516,0,0,1,.445-.8c1.21-1.9.849-5.283.253-8-.093-.422-.191-.827-.289-1.214-.044-.165-.089-.32-.129-.476l.191-.08a6.08,6.08,0,0,1,.058-.7A4.889,4.889,0,0,0,404.9,102.8s4.087-4.594,7.707-6.524,3.887-4.727,3.887-4.727c-.538-.934.956-4.727.956-4.727Zm-11.771,6.123-3.869,4.487a.122.122,0,0,1,0-.027c-1-1.4.938-4.527.938-4.527l3.2-7.164a4.321,4.321,0,0,1-.418,2.117c-.889,1.2,1.605,3.2,1.605,3.2-1.339-.013-1.472,1.917-1.472,1.917Z"/>
        <path id="Tracé_529" data-name="Tracé 529" class="cls-12" d="M337.384,30.02l-2.108,4.1a8.153,8.153,0,0,1-1.965-.409,7.458,7.458,0,0,1-4.616-4,5.8,5.8,0,0,1,2.69-7.658c1.454-.792,2.8-1.7,3.891.889a44.907,44.907,0,0,1,1.717,5.434C337.229,29.357,337.384,30.02,337.384,30.02Z"/>
        <path id="Tracé_530" data-name="Tracé 530" class="cls-12" d="M404.5,51.366l-3.371,5.03s-15.947,7.6-12.9-1.334a20.137,20.137,0,0,0,1.258-8.81V46.2a6.947,6.947,0,0,0-1.25-3.558s15.542-7.951,13.23-2.513a7.563,7.563,0,0,0-.551,3.58,12.208,12.208,0,0,0,1.677,4.967A16.458,16.458,0,0,0,404.5,51.366Z"/>
        <path id="Tracé_531" data-name="Tracé 531" class="cls-13" d="M399.668,150.885s2.3,9.614,1.334,11.2-.889,5.114-.889,5.114-1.854,13.763-2.562,14.293a8.491,8.491,0,0,0-1.5,1.779s1.258,3.113.5,4.4a1.046,1.046,0,0,1-.5.445c-1.183.5-5.55-1.712-8.036-3.068a1.368,1.368,0,0,1-.658-.787,1.4,1.4,0,0,1,.4-1.521,1.45,1.45,0,0,1,.4-1.779l.654-.507-.151-.178a1.447,1.447,0,0,1-.133-1.69,6.229,6.229,0,0,0,.636-2.806c.178-3.442,1.058-4.763,1.058-4.763l-.529-15.7a22.257,22.257,0,0,0,0-2.557c-.089-.969-1.721-.329-1.983-.6s-.311-1.521-1.014-1.877a1.979,1.979,0,0,1-.64-1.085,6.327,6.327,0,0,1-.182-3.064,1.8,1.8,0,0,0-.325-1.4c-.8-1.058-.529-4.674-.529-4.674L383.8,132.5c-1.939,6.417-4.407,14.146-5.221,14.706a2.544,2.544,0,0,0-1.226,2.306c1.147,1.41.707,7.5.707,7.5s0,16.845-.827,17.993a44,44,0,0,0-2.437,4.674s4.727,4.207,1.009,6.328l-.04.022c-3.793,2.117-11.642-3.789-11.642-3.789l.818-.818.24-.24-.889-1.414c-.912-1.588,2.668-4.585,2.668-4.585s-.952-3.7-.6-3.882.6-3.531.6-3.531-.867-12.171-.516-13.314a1.776,1.776,0,0,0-.418-1.521,3.8,3.8,0,0,1-.676-2.361,2.808,2.808,0,0,0-.578-2.028c-1.058-1.147,0-6.088,0-6.088l.889-6.528v-10.4a16.471,16.471,0,0,1,1.067-5.834,17.6,17.6,0,0,0,.961-4.7,19.732,19.732,0,0,1,3.3-8.449c.64-.978,1.116-1.565,1.116-1.565l28.225-1.107s.445,1.258.889,3.006c.1.382.2.783.285,1.2.591,2.713.947,6.07-.249,7.965a6.371,6.371,0,0,0-.445.8c-1.614,3.438-.511,7.756-.511,7.756s-1.41,9.783-2.028,11.38a5.711,5.711,0,0,0,.24,3.513,3.91,3.91,0,0,1,.2,1.218v3.473s.707,2.908.356,3.7S399.668,150.885,399.668,150.885Z"/>
        <path id="Tracé_532" data-name="Tracé 532" class="cls-7" d="M400.967,116.293a7.344,7.344,0,0,0-.445.8L398.934,117c.151-.818-.929-8.489-.929-8.489l3.2-.182C401.8,111.058,402.163,114.42,400.967,116.293Z"/>
        <path id="Tracé_533" data-name="Tracé 533" class="cls-13" d="M401.23,116.043a6.371,6.371,0,0,0-.445.8l-1.592-.089c.156-.818-.925-8.494-.925-8.494l3.2-.178C402.07,110.8,402.426,114.153,401.23,116.043Z"/>
        <path id="Tracé_534" data-name="Tracé 534" class="cls-14" d="M401.23,116.043a6.371,6.371,0,0,0-.445.8l-1.592-.089c.156-.818-.925-8.494-.925-8.494l3.2-.178C402.07,110.8,402.426,114.153,401.23,116.043Z"/>
        <path id="Tracé_535" data-name="Tracé 535" class="cls-7" d="M396.555,187.667a1.046,1.046,0,0,1-.5.445c-1.183.5-5.55-1.712-8.036-3.068a1.368,1.368,0,0,1-.658-.787c1.414-.258,2.344,1.334,2.344,1.334a2.087,2.087,0,0,1,2.877.655l.031.052c1.214,1.779,3.816,1.032,3.816,1.032S396.48,187.445,396.555,187.667Z"/>
        <path id="Tracé_536" data-name="Tracé 536" class="cls-15" d="M397.289,193.07c-.267.792-2.25.792-2.25.792a42.355,42.355,0,0,0-5.141,1.81,3.513,3.513,0,0,1-2.668.374c-3.642.841-8.316-.614-9.726-.889s-1.966-2.117-.222-2.468a3.479,3.479,0,0,0,.654-.2,5.3,5.3,0,0,0,2.17-1.779,45.029,45.029,0,0,1,3.713-3.2,10.762,10.762,0,0,0,2.33-2.357c2.072-1.832,3.558.685,3.558.685a2.087,2.087,0,0,1,2.877.655l.031.052c1.214,1.779,3.816,1.032,3.816,1.032s.445,1.192.685,2.05c.053.218.111.494.16.8A6.952,6.952,0,0,1,397.289,193.07Z"/>
        <circle id="Ellipse_39" data-name="Ellipse 39" class="cls-16" cx="391.224" cy="187.249" r="0.245"/>
        <circle id="Ellipse_40" data-name="Ellipse 40" class="cls-16" cx="389.151" cy="189.188" r="0.245"/>
        <circle id="Ellipse_41" data-name="Ellipse 41" class="cls-16" cx="387.044" cy="190.931" r="0.245"/>
        <circle id="Ellipse_42" data-name="Ellipse 42" class="cls-16" cx="388.133" cy="190.153" r="0.245"/>
        <circle id="Ellipse_43" data-name="Ellipse 43" class="cls-16" cx="390.232" cy="188.156" r="0.245"/>
        <path id="Tracé_537" data-name="Tracé 537" class="cls-17" d="M397.289,193.069c-.267.792-2.25.792-2.25.792a42.355,42.355,0,0,0-5.141,1.81,3.513,3.513,0,0,1-2.668.374c-3.642.84-8.316-.614-9.726-.889s-1.966-2.117-.222-2.468a3.479,3.479,0,0,0,.654-.2,16.913,16.913,0,0,0,4.772.889c3.593.151,6.439,0,6.439,0l3.638-1.17a6.093,6.093,0,0,1,2.25-.818,5.764,5.764,0,0,0,2.223-.969,6.949,6.949,0,0,1,.031,2.65Z"/>
        <path id="Tracé_538" data-name="Tracé 538" class="cls-18" d="M388.235,195.352a3.032,3.032,0,0,1-.6-.062l.053-.258a3.822,3.822,0,0,0,2.179-.3,10.273,10.273,0,0,0,.965-.445,11.205,11.205,0,0,1,1.147-.5l.36-.125c.2-.067.4-.133.591-.218.111-.044.218-.1.325-.147a3.649,3.649,0,0,1,.818-.311,3.955,3.955,0,0,1,.445-.058,3.8,3.8,0,0,0,.4-.049,3.451,3.451,0,0,0,.765-.285,3.723,3.723,0,0,1,.823-.3l.2-.036a.936.936,0,0,0,.569-.209l.191.182a1.186,1.186,0,0,1-.72.289l-.182.031a3.488,3.488,0,0,0-.765.285,3.686,3.686,0,0,1-.823.3,2.876,2.876,0,0,1-.445.053,3.873,3.873,0,0,0-.414.053,3.377,3.377,0,0,0-.756.294l-.333.151c-.2.084-.409.156-.614.222l-.351.125c-.382.142-.76.32-1.13.489s-.645.307-.978.445A4.716,4.716,0,0,1,388.235,195.352Z"/>
        <path id="Tracé_539" data-name="Tracé 539" class="cls-7" d="M389.084,151.526a6.416,6.416,0,0,1,4.963-2.624,17.015,17.015,0,0,0,4.474-.351,11.091,11.091,0,0,1-3.393,1.334A57.2,57.2,0,0,0,389.084,151.526Z"/>
        <path id="Tracé_540" data-name="Tracé 540" class="cls-7" d="M390.143,152.144a7.386,7.386,0,0,1,2.6-1.192c.947-.044,1.779-.133,1.779-.133a5.016,5.016,0,0,1-1.454.707C392.263,151.748,390.143,152.144,390.143,152.144Z"/>
        <path id="Tracé_541" data-name="Tracé 541" class="cls-7" d="M390.494,152.936s2.495.2,2.517.863"/>
        <path id="Tracé_542" data-name="Tracé 542" class="cls-7" d="M367.294,115.75c.129.022,2.352-2.317,2.508-3.242a2.271,2.271,0,0,1,.969-1.423s1.436.574.156,2.33A7.126,7.126,0,0,1,367.294,115.75Z"/>
        <path id="Tracé_543" data-name="Tracé 543" class="cls-7" d="M401.456,40.1c-.507,1.2-.956,1.29-.858,2.455a8.821,8.821,0,0,1-2.019,1.588c-1.579.938-3.3,2.77-5.261,2.77a10.419,10.419,0,0,1-3.842-.725,6.947,6.947,0,0,0-1.25-3.558S403.756,34.662,401.456,40.1Z"/>
        <path id="Tracé_544" data-name="Tracé 544" class="cls-12" d="M403.831,35.868a10.517,10.517,0,1,1-10.517-10.517h0A10.517,10.517,0,0,1,403.831,35.868Z"/>
        <path id="Tracé_545" data-name="Tracé 545" class="cls-7" d="M404.5,51.366l-3.371,5.03s-15.947,7.6-12.9-1.334a20.137,20.137,0,0,0,1.258-8.81h.027a8.292,8.292,0,0,1,.316,2.028c.049,1.37.084,3.113,3.491,3.682a9.515,9.515,0,0,0,9.263-3.3A16.5,16.5,0,0,0,404.5,51.366Z"/>
        <path id="Tracé_546" data-name="Tracé 546" class="cls-7" d="M337.384,30.02l-2.108,4.1a8.161,8.161,0,0,1-1.966-.409l-.182-.218c.863.329,3.771-5.163,3.771-5.163l.093.076C337.233,29.358,337.384,30.02,337.384,30.02Z"/>
        <path id="Tracé_547" data-name="Tracé 547" class="cls-7" d="M401.194,106.878c-6.808,2.957-30.369.445-30.369.445a2.951,2.951,0,0,0,.12-.769c.64-.978,1.116-1.565,1.116-1.565l28.224-1.108S400.744,105.131,401.194,106.878Z"/>
        <path id="Tracé_548" data-name="Tracé 548" class="cls-19" d="M389.529,46.5l-3.14,1.334a2.509,2.509,0,0,1-2.25-1.459c-.725-1.521-3.3,0-3.3,0s-7.876-.6-10.784.863c0,0-4.7-1.988-5.336-2.117s-1.654-.663-2.117-.529-1.058-.863-1.388-.8-.467-.663-1.525-.925-1.454.067-2.646-1.125S346.2,35.851,346.2,35.851l-4.367-3.558-4.629-3.7s-2.913,5.488-3.771,5.159l8.8,10.584s6.35,5.559,10.717,7.342S356.98,54,356.98,54s13.234,6.746,15.284,6.617,1.654,13.826.792,16.076S370.81,95.21,370.81,95.21s-1.334,3.438.062,5.821c0,0,.333,4.892,0,5.754,0,0,23.707,2.535,30.431-.445,0,0,.992-10.98,0-12.372s.929-4.5.929-4.5l4.2-9.481,10.3-10.384s1.587-8.667-5.488-14.23l-4.7-4.167s-2.628-2.272-3.393-2.415-.485,0-.485,0a9.512,9.512,0,0,1-9.339,3.406c-3.406-.574-3.442-2.308-3.491-3.682A8.3,8.3,0,0,0,389.529,46.5Z"/>
        <path id="Tracé_549" data-name="Tracé 549" class="cls-7" d="M402.447,82.108s-14.555.6-17.464,5.163c0,0,3.771-1.779,7.142-1.259S402.447,82.108,402.447,82.108Z"/>
        <path id="Tracé_550" data-name="Tracé 550" class="cls-7" d="M386.372,98.059s6.88.445,8.338-.992,1.459-2.312,1.459-2.312Z"/>
        <path id="Tracé_551" data-name="Tracé 551" class="cls-7" d="M403.835,68.087s-5.821,6.88,1.259,9.855Z"/>
        <path id="Tracé_552" data-name="Tracé 552" class="cls-7" d="M369.371,54.79s2.117,4.318,3.175,4.607Z"/>
        <path id="Tracé_553" data-name="Tracé 553" class="cls-7" d="M362.229,52.936s5.292,4.763,6.284,5.225C368.513,58.161,363.019,52.936,362.229,52.936Z"/>
        <path id="Tracé_554" data-name="Tracé 554" class="cls-7" d="M383.33,48.373s-5.1,7.6-1.779,12.238C381.524,60.611,379.692,55.119,383.33,48.373Z"/>
        <path id="Tracé_555" data-name="Tracé 555" class="cls-12" d="M396.168,105.993l-1.556,1.463-.218.2-1.8,1.7c-.133.1-.258.2-.387.285-7.338,5.261-8.81-2.73-8.81-2.73s-3.242,2.117-3.7.4,7.56-4.167,8.729-4.033a1.556,1.556,0,0,0,.32,0,5.02,5.02,0,0,0,1.646-.583c.12-.062.24-.125.356-.191a13.142,13.142,0,0,0,1.187-.747Z"/>
        <path id="Tracé_556" data-name="Tracé 556" class="cls-7" d="M404.1,35.868a10.516,10.516,0,0,1-5.142,9.042,6.207,6.207,0,0,1-.381-.766c-.378-.889-.609-1.819-.987-2.7a8.422,8.422,0,0,0-1.779-2.575,1.122,1.122,0,0,0-.445-.325,1.277,1.277,0,0,0-.965.267,4.368,4.368,0,0,1-1.468.645,1.564,1.564,0,0,1-1.472-.445,2.209,2.209,0,0,1-.231-1.837,22.768,22.768,0,0,0,.685-4.1,4.048,4.048,0,0,0-1.734-3.584c-1.067-.6-2.393-.445-3.58-.778a3.849,3.849,0,0,1-.538-.187,10.522,10.522,0,0,1,18.05,7.346Z"/>
        <path id="Tracé_557" data-name="Tracé 557" class="cls-20" d="M385.34,26.849c-.191.1-.4.285-.342.5a.5.5,0,0,0,.191.245,4.563,4.563,0,0,0,1.663.854c1.187.32,2.517.169,3.584.778a4.04,4.04,0,0,1,1.734,3.58,23.919,23.919,0,0,1-.689,4.1,2.226,2.226,0,0,0,.236,1.841,1.57,1.57,0,0,0,1.472.445,4.324,4.324,0,0,0,1.463-.64,1.268,1.268,0,0,1,.965-.267,1.164,1.164,0,0,1,.471.32,8.346,8.346,0,0,1,1.779,2.579c.382.889.614,1.814.987,2.7a4.358,4.358,0,0,0,1.779,2.2,2.223,2.223,0,0,0,2.668-.28c.614-.676.6-1.7.889-2.566.525-1.5,1.992-2.441,2.908-3.735a11.478,11.478,0,0,0,1.6-5.052,4.219,4.219,0,0,0,.027-1.69,6.024,6.024,0,0,0-.467-1.067c-1.023-2.117-1-4.781-2.633-6.475-1.227-1.267-3.086-1.654-4.838-1.868a12.426,12.426,0,0,1-5.092-1.267,5.588,5.588,0,0,0-1.379-.765,1.134,1.134,0,0,0-1.356.507.888.888,0,0,1-.182.369.579.579,0,0,1-.516.031l-2.33-.627.268,1.172a5.806,5.806,0,0,1-2.473-.445c-.045.663.7,1.094.934,1.712a1.582,1.582,0,0,1-.445,1.614C387.35,26.494,386.292,26.329,385.34,26.849Z"/>
        <path id="Tracé_558" data-name="Tracé 558" class="cls-7" d="M375.9,184.913l-.093,1.058-.04.022c-3.793,2.117-11.642-3.789-11.642-3.789l.818-.818a1.42,1.42,0,0,1,.356,1.1l1.605.089,1.917,2.072s5.19.6,6.6.262Z"/>
        <path id="Tracé_559" data-name="Tracé 559" class="cls-15" d="M375.237,190.668c-2.468.547-11.117.507-11.117.507l-4.829.769s-8.312.8-9.236-1.779.725-2.424.725-2.424h.062l3.46-.28a38.894,38.894,0,0,0,6-2.868,34.393,34.393,0,0,0,3.593-3.22s1.445-.28,1.419,1.392l1.6.089,1.917,2.068s5.19.6,6.595.267h.485l-.222,2.557.062.08C376.059,188.222,377.443,190.175,375.237,190.668Z"/>
        <circle id="Ellipse_44" data-name="Ellipse 44" class="cls-16" cx="366.281" cy="184.243" r="0.245"/>
        <circle id="Ellipse_45" data-name="Ellipse 45" class="cls-16" cx="360.064" cy="186.942" r="0.245"/>
        <circle id="Ellipse_46" data-name="Ellipse 46" class="cls-16" cx="356.862" cy="187.916" r="0.245"/>
        <circle id="Ellipse_47" data-name="Ellipse 47" class="cls-16" cx="361.696" cy="186.426" r="0.245"/>
        <circle id="Ellipse_48" data-name="Ellipse 48" class="cls-16" cx="358.458" cy="187.431" r="0.245"/>
        <circle id="Ellipse_49" data-name="Ellipse 49" class="cls-16" cx="363.345" cy="185.661" r="0.245"/>
        <circle id="Ellipse_50" data-name="Ellipse 50" class="cls-16" cx="364.978" cy="184.954" r="0.245"/>
        <path id="Tracé_560" data-name="Tracé 560" class="cls-17" d="M375.237,190.668c-2.468.547-11.117.507-11.117.507l-4.829.769s-8.312.8-9.236-1.779.725-2.424.725-2.424h.062a4.448,4.448,0,0,0,3.682,1.5l5.977.245,6.2-.445s5.781-.178,6.746-.374a14.073,14.073,0,0,0,2.312-.849C376.059,188.222,377.443,190.174,375.237,190.668Z"/>
        <path id="Tracé_561" data-name="Tracé 561" class="cls-18" d="M359.734,191.362a3.939,3.939,0,0,1-.978-.12l.089-.24a4.8,4.8,0,0,0,2.464-.111c.294-.076.583-.16.889-.249a10.081,10.081,0,0,1,4.291-.485h.191a40.606,40.606,0,0,0,7.938-.356,2.952,2.952,0,0,0,1.7-.68l.191.187a3.216,3.216,0,0,1-1.846.756,41.24,41.24,0,0,1-8,.356h-.187a12.972,12.972,0,0,0-2.628.076,13.619,13.619,0,0,0-1.579.4c-.294.089-.587.178-.889.254a6.63,6.63,0,0,1-1.641.218Z"/>
        <path id="Tracé_562" data-name="Tracé 562" class="cls-7" d="M396.168,105.993l-1.556,1.463-3.869-4.95a13.142,13.142,0,0,0,1.187-.747Z"/>
        <path id="Tracé_563" data-name="Tracé 563" class="cls-19" d="M413.694,65.374l3.042,4.234v4.447a18.507,18.507,0,0,1,0,9.4l.156,4.1s-1.476,3.771-.947,4.7c0,0-.267,2.779-3.838,4.7S404.5,103.4,404.5,103.4s-1.521,2.913-5.621,2.25l-3.9,1.654-4.5-5.754,6.084-3.309s2.117-2.846,3.375-2.713l5.159-6.008s.133-1.917,1.454-1.917c0,0-2.446-1.983-1.588-3.175s.133-6.484.133-6.484Z"/>
        <path id="Tracé_564" data-name="Tracé 564" class="cls-7" d="M408.006,84.687s6.946-.129,7.8,1.654S410.123,83.7,408.006,84.687Z"/>
        <path id="Tracé_565" data-name="Tracé 565" class="cls-7" d="M394.418,107.313a1.839,1.839,0,0,1-.027.347,2.338,2.338,0,0,1-2.188,1.988h-.125a2.335,2.335,0,0,1-2.335-2.335h0a2.425,2.425,0,0,1,.129-.76,4.031,4.031,0,0,1-1.13-3.28,5.015,5.015,0,0,0,1.645-.583,11.01,11.01,0,0,0,1.152,2.352,2.212,2.212,0,0,1,.543-.067,2.334,2.334,0,0,1,2.339,2.331v0Z"/>
        <path id="Tracé_566" data-name="Tracé 566" class="cls-16" d="M390.6,102.177s-1.565.351-1.565.636-.351,2.868,1.365,3.927,1.548-1.476,1.548-1.476S390.463,102.991,390.6,102.177Z"/>
        <circle id="Ellipse_51" data-name="Ellipse 51" class="cls-21" cx="392.348" cy="107.313" r="2.339"/>
        <circle id="Ellipse_52" data-name="Ellipse 52" class="cls-17" cx="392.349" cy="107.314" r="2.006"/>
        <path id="Tracé_567" data-name="Tracé 567" class="cls-7" d="M383.241,108.216a11.587,11.587,0,0,0,11.291,1.5V111.7s-4.234,2.908-8.071,1.147S383.241,108.216,383.241,108.216Z"/>
        <path id="Tracé_568" data-name="Tracé 568" class="cls-7" d="M383.241,107.687a11.576,11.576,0,0,0,11.291,1.49v1.983s-4.234,2.908-8.071,1.147S383.241,107.687,383.241,107.687Z"/>
        <path id="Tracé_569" data-name="Tracé 569" class="cls-13" d="M383.241,107.687a11.576,11.576,0,0,0,11.291,1.49v1.983s-4.234,2.908-8.071,1.147S383.241,107.687,383.241,107.687Z"/>
        <path id="Tracé_570" data-name="Tracé 570" class="cls-14" d="M383.374,107.687a11.582,11.582,0,0,0,11.291,1.5v1.983s-4.247,2.9-8.071,1.147S383.374,107.687,383.374,107.687Z"/>
        <path id="Tracé_571" data-name="Tracé 571" class="cls-7" d="M367.739,181.361s6.617,1.214,7.587,1.476-.267.729-.267.729S369,182.486,367.739,181.361Z"/>
        <path id="Tracé_572" data-name="Tracé 572" class="cls-7" d="M367.565,177.857c.107,0,4.5-1.236,5.443-3.353"/>
        <path id="Tracé_573" data-name="Tracé 573" class="cls-7" d="M373.965,152.54s1.779,2.339,2.926,2.272S375.01,152.451,373.965,152.54Z"/>
        <path id="Tracé_574" data-name="Tracé 574" class="cls-7" d="M374.952,156.422s.747,1.654,1.85,1.125"/>
        <path id="Tracé_575" data-name="Tracé 575" class="cls-14" d="M379.119,120.1l4.692,12.372s.663-7.96-.738-10.344A4.129,4.129,0,0,0,379.119,120.1Z"/>
        <g id="Groupe_208" data-name="Groupe 208" class="cls-3">
          <path id="Tracé_576" data-name="Tracé 576" d="M390.667,22.073l-.04-.178-.756-.2.085.369a5.288,5.288,0,0,0,.712.009Z"/>
          <path id="Tracé_577" data-name="Tracé 577" d="M388.6,25.049l.08-.071a1.577,1.577,0,0,0,.445-1.61,2.159,2.159,0,0,0-.374-.6,5.824,5.824,0,0,1-1.09-.32c-.044.663.7,1.09.934,1.712a1.33,1.33,0,0,1,0,.889Z"/>
          <path id="Tracé_578" data-name="Tracé 578" d="M401.091,45.384a4.377,4.377,0,0,1-1.779-2.2c-.378-.889-.6-1.823-.987-2.7a8.3,8.3,0,0,0-1.779-2.575,1.123,1.123,0,0,0-.467-.325,1.264,1.264,0,0,0-.965.267,4.437,4.437,0,0,1-1.468.645,1.589,1.589,0,0,1-1.472-.445,2.209,2.209,0,0,1-.231-1.837,22.784,22.784,0,0,0,.689-4.109,3.972,3.972,0,0,0-1.739-3.558c-1.067-.609-2.393-.445-3.558-.778a4.54,4.54,0,0,1-1.663-.854l-.093-.084a3.06,3.06,0,0,0-.289.138c-.191.1-.4.285-.342.494a.533.533,0,0,0,.2.249,4.591,4.591,0,0,0,1.663.849c1.187.325,2.513.173,3.58.783A4.026,4.026,0,0,1,392.13,32.9a23.822,23.822,0,0,1-.689,4.1,2.216,2.216,0,0,0,.231,1.837,1.564,1.564,0,0,0,1.472.445,4.456,4.456,0,0,0,1.468-.64,1.286,1.286,0,0,1,.965-.271,1.159,1.159,0,0,1,.445.325,8.392,8.392,0,0,1,1.779,2.575c.382.889.609,1.819.987,2.7a4.37,4.37,0,0,0,1.779,2.224,2.25,2.25,0,0,0,2.668-.28,2.081,2.081,0,0,0,.4-.663,2.268,2.268,0,0,1-2.535.125Z"/>
          <path id="Tracé_579" data-name="Tracé 579" d="M404.889,42.027c.663-.836,1.53-1.548,2.152-2.428a5.891,5.891,0,0,0,.342-.543A22.062,22.062,0,0,0,404.889,42.027Z"/>
        </g>
        <g id="Groupe_210" data-name="Groupe 210" class="cls-3">
          <path id="Tracé_580" data-name="Tracé 580" d="M365.644,29.531H260.428a5.515,5.515,0,0,0-5.5,5.5v66.478a5.515,5.515,0,0,0,5.5,5.5h82.537s2.139,11.353-4.892,12.572c0,0,15.734,1.13,12.985-12.572H365.64a5.51,5.51,0,0,0,5.5-5.5V35.031a5.51,5.51,0,0,0-5.492-5.5Z"/>
          <g id="Groupe_209" data-name="Groupe 209" class="cls-4">
            <path id="Rectangle_117" data-name="Rectangle 117" d="M273.013,47.177H353.05a2.6,2.6,0,0,1,2.6,2.6h0a2.6,2.6,0,0,1-2.6,2.6H273.013a2.6,2.6,0,0,1-2.6-2.6h0A2.6,2.6,0,0,1,273.013,47.177Z"/>
            <path id="Rectangle_118" data-name="Rectangle 118" d="M273.013,70.39h65.135a2.6,2.6,0,0,1,2.6,2.6h0a2.6,2.6,0,0,1-2.6,2.6H273.013a2.6,2.6,0,0,1-2.6-2.6h0A2.6,2.6,0,0,1,273.013,70.39Z"/>
            <path id="Rectangle_119" data-name="Rectangle 119" d="M273.013,58.784h45.435a2.6,2.6,0,0,1,2.6,2.6h0a2.6,2.6,0,0,1-2.6,2.6H273.013a2.6,2.6,0,0,1-2.6-2.6h0A2.6,2.6,0,0,1,273.013,58.784Z"/>
          </g>
        </g>
        <path id="Tracé_581" data-name="Tracé 581" class="cls-2" d="M367.018,28.61H261.8a5.519,5.519,0,0,0-5.5,5.5v66.478a5.515,5.515,0,0,0,5.5,5.5h82.537s2.139,11.353-4.892,12.572c0,0,15.734,1.13,12.985-12.572h14.582a5.51,5.51,0,0,0,5.5-5.5V34.111a5.513,5.513,0,0,0-5.492-5.5Z"/>
        <g id="Groupe_211" data-name="Groupe 211" class="cls-4">
          <path id="Rectangle_120" data-name="Rectangle 120" class="cls-5" d="M274.387,46.256h80.037a2.6,2.6,0,0,1,2.6,2.6h0a2.6,2.6,0,0,1-2.6,2.6H274.387a2.6,2.6,0,0,1-2.6-2.6h0A2.6,2.6,0,0,1,274.387,46.256Z"/>
          <path id="Rectangle_121" data-name="Rectangle 121" class="cls-5" d="M274.387,69.474h65.135a2.6,2.6,0,0,1,2.6,2.6h0a2.6,2.6,0,0,1-2.6,2.6H274.387a2.6,2.6,0,0,1-2.6-2.6h0A2.6,2.6,0,0,1,274.387,69.474Z"/>
          <path id="Rectangle_122" data-name="Rectangle 122" class="cls-5" d="M274.387,57.867h45.435a2.6,2.6,0,0,1,2.6,2.6h0a2.6,2.6,0,0,1-2.6,2.6H274.387a2.6,2.6,0,0,1-2.6-2.6h0A2.6,2.6,0,0,1,274.387,57.867Z"/>
        </g>
        <path id="Tracé_582" data-name="Tracé 582" class="cls-5" d="M36.076,245.914s1.583,2.072-.734,5.2-4.229,5.781-3.455,7.724c0,0,3.5-5.812,6.341-5.892S39.207,249.409,36.076,245.914Z"/>
        <path id="Tracé_583" data-name="Tracé 583" class="cls-7" d="M36.077,245.914a2.58,2.58,0,0,1,.32.649c2.779,3.264,4.256,6.306,1.588,6.386-2.486.071-5.465,4.514-6.181,5.639a.838.838,0,0,0,.084.253s3.5-5.812,6.341-5.892S39.207,249.409,36.077,245.914Z"/>
        <path id="Tracé_584" data-name="Tracé 584" class="cls-22" d="M39.021,248.555c0,.729-.08,1.334-.182,1.334s-.182-.591-.182-1.334.1-.387.2-.387S39.021,247.825,39.021,248.555Z"/>
        <path id="Tracé_585" data-name="Tracé 585" class="cls-22" d="M40.034,249.427c-.64.351-1.2.56-1.25.471s.445-.445,1.072-.792.391-.093.445,0S40.675,249.08,40.034,249.427Z"/>
        <path id="Tracé_586" data-name="Tracé 586" class="cls-5" d="M27.7,245.914s-1.583,2.072.734,5.2,4.229,5.781,3.455,7.724c0,0-3.5-5.812-6.341-5.892S24.567,249.409,27.7,245.914Z"/>
        <path id="Tracé_587" data-name="Tracé 587" class="cls-7" d="M27.7,245.914a2.614,2.614,0,0,0-.32.649c-2.779,3.264-4.256,6.306-1.588,6.386,2.486.071,5.465,4.514,6.181,5.639-.022.084-.053.169-.084.253,0,0-3.5-5.812-6.341-5.892S24.567,249.409,27.7,245.914Z"/>
        <path id="Tracé_588" data-name="Tracé 588" class="cls-22" d="M24.754,248.555c0,.729.08,1.334.182,1.334s.182-.591.182-1.334-.1-.387-.2-.387S24.754,247.825,24.754,248.555Z"/>
        <path id="Tracé_589" data-name="Tracé 589" class="cls-22" d="M23.74,249.427c.64.351,1.2.56,1.25.471s-.445-.445-1.072-.792-.391-.093-.445,0S23.1,249.08,23.74,249.427Z"/>
        <ellipse id="Ellipse_53" data-name="Ellipse 53" class="cls-1" cx="31.887" cy="272.16" rx="16.578" ry="2.544"/>
        <path id="Tracé_590" data-name="Tracé 590" class="cls-23" d="M40.439,256.048l-.08.645-.111.916-.049.383-.111.912-.044.382-.111.916-1.272,10.4c-.111.929-1.628,1.654-3.46,1.654H28.593c-1.832,0-3.344-.725-3.46-1.654l-1.272-10.4-.111-.916-.044-.383-.111-.912-.049-.382-.111-.916-.08-.645c-.062-.525.76-.969,1.779-.969H38.613C39.661,255.083,40.484,255.523,40.439,256.048Z"/>
        <path id="Tracé_591" data-name="Tracé 591" class="cls-24" d="M40.333,256.693l-.111.916H23.544l-.111-.916Z"/>
        <path id="Tracé_592" data-name="Tracé 592" class="cls-24" d="M40.181,257.992l-.111.912H23.705l-.116-.912Z"/>
        <path id="Tracé_593" data-name="Tracé 593" class="cls-24" d="M40.021,259.286l-.111.916H23.86l-.111-.916Z"/>
        <ellipse id="Ellipse_54" data-name="Ellipse 54" class="cls-1" cx="287.181" cy="351.023" rx="37.373" ry="6.132"/>
        <g id="Groupe_213" data-name="Groupe 213" class="cls-3">
          <path id="Tracé_594" data-name="Tracé 594" d="M330.468,162.7H216.451a5.977,5.977,0,0,0-5.959,5.959V240.7a5.977,5.977,0,0,0,5.959,5.959h89.441s2.317,12.3-5.3,13.621c0,0,17.045,1.223,14.066-13.621h15.8a5.977,5.977,0,0,0,5.959-5.959V168.66a5.977,5.977,0,0,0-5.959-5.959Z"/>
          <g id="Groupe_212" data-name="Groupe 212" class="cls-4">
            <path id="Rectangle_123" data-name="Rectangle 123" d="M230.09,206.985h86.734a2.815,2.815,0,0,1,2.815,2.815h0a2.815,2.815,0,0,1-2.815,2.815H230.09a2.815,2.815,0,0,1-2.815-2.815h0A2.815,2.815,0,0,1,230.09,206.985Z"/>
            <path id="Rectangle_124" data-name="Rectangle 124" d="M230.09,194.4h34.42a2.815,2.815,0,0,1,2.815,2.815h0a2.815,2.815,0,0,1-2.815,2.815H230.09a2.815,2.815,0,0,1-2.815-2.815h0A2.815,2.815,0,0,1,230.09,194.4Z"/>
          </g>
        </g>
        <path id="Tracé_595" data-name="Tracé 595" class="cls-2" d="M329.494,161.709H215.455a5.977,5.977,0,0,0-5.959,5.959V239.71a5.977,5.977,0,0,0,5.959,5.959H304.9s2.317,12.3-5.3,13.626c0,0,17.05,1.223,14.07-13.626H329.49a5.976,5.976,0,0,0,5.959-5.959V167.668A5.976,5.976,0,0,0,329.494,161.709Z"/>
        <g id="Groupe_214" data-name="Groupe 214" class="cls-4">
          <path id="Rectangle_125" data-name="Rectangle 125" class="cls-5" d="M229.1,205.993h86.734a2.815,2.815,0,0,1,2.815,2.815h0a2.815,2.815,0,0,1-2.815,2.815H229.1a2.815,2.815,0,0,1-2.815-2.815h0A2.815,2.815,0,0,1,229.1,205.993Z"/>
          <path id="Rectangle_126" data-name="Rectangle 126" class="cls-5" d="M229.1,193.412h34.42a2.815,2.815,0,0,1,2.815,2.815h0a2.815,2.815,0,0,1-2.815,2.815H229.1a2.815,2.815,0,0,1-2.815-2.815h0A2.815,2.815,0,0,1,229.1,193.412Z"/>
        </g>
        <path id="Tracé_596" data-name="Tracé 596" class="cls-25" d="M308.69,346.852c-.538-2.281-.889-4.287-.889-4.287a8.831,8.831,0,0,0-.992-4.354v-.623h0v-4.594a15.536,15.536,0,0,1,1.161-2.406c.827-1.445,0-6.737,0-6.737s-3.068-7.462-2.321-12.194-6.3-21.021-6.3-21.021a20.7,20.7,0,0,1,.663-4.652,3.585,3.585,0,0,0,.089-.974.8.8,0,0,0,0-.12v.04c-.107-3.113-2.575-8.974-2.575-8.974l.334-11.149a32.782,32.782,0,0,0-1-15.4c-.889-3.077-1.472-5.545-1.837-7.444-.04-.218-.08-.445-.116-.623,5.292-.8,9.339-1.476,9.339-1.476s-3.06-12.838-5.132-15.062-3.727-9.339-3.727-9.339-1.081-9.067.663-11.713,1.988-7.217,1.988-7.217,4-2.891,4.478-4.171a22.032,22.032,0,0,0,1.334-5.7c0-1.525-.5-2.891-.334-3.691s-1.161-3.851-.5-5.3a3.882,3.882,0,0,0,.267-1.392v-.04h0a19.549,19.549,0,0,0-.351-3.762,10.672,10.672,0,0,0-3.936-2.1l-.088-.347-.222-.889c-.133-.089-.262-.165-.391-.236v-.328l-.04-1.3.627-2.926c1.223-5.1-5.577-5.857-5.577-5.857a3.56,3.56,0,0,0-1.926-1.685c-1.37-.48-.227,7.662.414,8.183a29.6,29.6,0,0,1,2.668,4.2h0l.116.209a2.447,2.447,0,0,0-.311.325l.258,1.779.04.271a7.4,7.4,0,0,0-1.085,1.85,3.952,3.952,0,0,1,1,2.891,8.782,8.782,0,0,0,.409,3.526c-.071-.084-.947-1.032-1.819-.8s-3.318.965-3.318.965-1.823.32-1.654.72-1.245,2.166-1.245,2.166l-4.892-4.643c-.044-.138-.1-.276-.142-.422a11.586,11.586,0,0,1-.445-2.032,11.817,11.817,0,0,0,1.565-.5,3.39,3.39,0,0,0,1.334-.867,5.3,5.3,0,0,0,.787-2.112,30.692,30.692,0,0,1,1.818-4.056,13.161,13.161,0,0,0,.979-7.28,4.8,4.8,0,0,0-.753-2.13c-.8-1.1-2.25-1.548-3.309-2.428s-1.734-2.223-2.962-2.877a5.9,5.9,0,0,0-3.721-.32,20.053,20.053,0,0,0-6.943,2.526,3.568,3.568,0,0,1-2.32.765,3.127,3.127,0,0,1-1.679-1.241.082.082,0,0,1,.022-.067l-.053-.062a8.63,8.63,0,0,0-.725,3.633,5.475,5.475,0,0,0,.022.587v.374h0a.859.859,0,0,1-.036.262,1.9,1.9,0,0,1-.445.663,3.551,3.551,0,0,0-.4.543,1.955,1.955,0,0,1,.067-.2,2.924,2.924,0,0,0-.507,1.548,1.533,1.533,0,0,0,.365,1.1,5.444,5.444,0,0,0,.8.645,9.339,9.339,0,0,0,4.447,9.712c.058.138.116.28.169.422a11.682,11.682,0,0,1,.889,5.336,1.919,1.919,0,0,1-.062.391c-.027.129-.12.133-.173.2h0s-8.089.08-10-1.645-4.807,4.211-4.807,4.211-2.9.56-3.478,0-3.98-.08-3.98-.08a7.312,7.312,0,0,0-5.034-1.841,14.978,14.978,0,0,0-3.709-2.063h0l-.089-.031h0a4.156,4.156,0,0,0-1.823-.231s-3.98-3.291-5.141-5.052-6.671-8.311-6.711-8.343v-.316l-.062-.956a3.139,3.139,0,0,1-.494.044c-.031-.093-.067-.2-.111-.329a18.413,18.413,0,0,0-1.174-2.7s0-1.2.351-1.5-.147-4.714-.147-4.714-3.584-8.383-6.8-2.126c0,0-6.07,4.051-.974,8.765,0,0,2.032.983,2.317,1.779.191.507.889,1.921,1.334,2.859l.209.422-.058.049.076.787.031.3c-.961.547-1.61,1.085-1.454,1.494a8.992,8.992,0,0,1,.583,2.166s7.017,8.805,7.929,12.585c0,0,18.9,11.229,25.112,12.029l-1.076,5.617a45.347,45.347,0,0,0-.249,4.572c.08,1.2-.747,6.671-.747,6.671s-1.076,8-1.988,9.143-.725,5.928-.725,5.928a40.455,40.455,0,0,1-1.245,6.817,17.885,17.885,0,0,0-.249,6.822s-3.148,7.217,4.394,2.326c0,0,3.7-.231,7.969-.378v.445c0,.547,0,1.143-.027,1.779-.058,4.136-.08,9.832.107,14.146.334,7.618,2.668,22.7,2.668,22.7v7.56a10.432,10.432,0,0,0-.218,2.166,14.125,14.125,0,0,0,2.041,7.587l.583,5.052a19.748,19.748,0,0,1,1.388,5.336,2.933,2.933,0,0,1-.058.485,3.522,3.522,0,0,0-.067.774c-.076,2.3,1.307,7.782,1.307,7.782s.08,5.536.889,5.857c.707.276-.947,3.193-1.441,4.029a.3.3,0,0,0-.031-.16l-.1.169a3.894,3.894,0,0,0-.258,1.4,2.016,2.016,0,0,0,.921,1.948c1.574.961,2.42,1.779,1.081,2.086a14.194,14.194,0,0,0-1.458.307l-.071-.187a.887.887,0,0,0-.542.969,4.03,4.03,0,0,0,.494,1.877,21.4,21.4,0,0,0,2.224,4.091l.64-.071a3.508,3.508,0,0,1-.369.685,2.66,2.66,0,0,1-.938.832,2.845,2.845,0,0,1-1.134.387,3.2,3.2,0,0,0-2.348,1.143c-.827,1.072-1.334,2.526.289,3.807l5.928,2.046s10.193,1.334,9.654-.965-.889-4.291-.889-4.291a9.059,9.059,0,0,0-.827-4.056,5.506,5.506,0,0,0-.36-.6l.36-.04s.747-5.056,1.739-6.017c.231-.222.285-.391.227-.525.1-.276-.156-.445-.489-.529l-.071.2a4.872,4.872,0,0,0-.992-.111s-.329-2.646.747-3.607a1.026,1.026,0,0,0,.209-.787,4.461,4.461,0,0,0-.111-1.081l-.04.062a39.159,39.159,0,0,0-2.38-6.226s-.083-2.406.584-3.371-.086-13.074-.086-13.074.25-5.857-.5-8.583.912-5.937.912-5.937v-.178l.022-.04s-.04-.36-.1-.921v.053c-.169-1.548-.485-4.358-.716-5.657-.333-1.846.08-10.673.08-10.673l1.494-3.771,2.669,6.5,2.818,8.663a7.362,7.362,0,0,1,1.427,3.682,1.751,1.751,0,0,1,0,.271,5.408,5.408,0,0,0-.031.583,5.139,5.139,0,0,0,.858,3.082s.747,4.091,1.908,5.136a4.621,4.621,0,0,1,1.161,3.046s1.406,5.937,2.073,6.982c.556.889.586,3.3.583,4.033h0v.218s.2,2.121.187,3.9v.636a.135.135,0,0,1,0-.049,6.57,6.57,0,0,1-.173,1.445.161.161,0,0,1-.027.085l.027-.3a15.229,15.229,0,0,0-.445,3.7c-.04,2.135.285,4.66,1.579,6.141,2.223,2.57,3.646,2.25,3.646,2.25s-1.076,3.206-2.406,3.847a.726.726,0,0,0-.138.093,1.47,1.47,0,0,0-.036-.187,1.558,1.558,0,0,0-.388,1.2,8.534,8.534,0,0,0,1.641,4.754,2.589,2.589,0,0,0,1.121.654l-.209.129a4.469,4.469,0,0,1-.445.218,2.132,2.132,0,0,1-.676.173,3.178,3.178,0,0,0-2.348,1.143c-.827,1.067-1.334,2.521.289,3.8l5.928,2.046S309.225,349.142,308.69,346.852Z"/>
        <path id="Tracé_597" data-name="Tracé 597" class="cls-26" d="M269.754,350.65l-5.737-2.046c-1.583-1.281-1.076-2.735-.28-3.807a3.067,3.067,0,0,1,2.272-1.143,2.666,2.666,0,0,0,1.1-.387,2.568,2.568,0,0,0,.889-.832,4.184,4.184,0,0,0,.654-2.224s6.3-1.846,8,0a4.715,4.715,0,0,1,.765,1.116,9.323,9.323,0,0,1,.8,4.056s.325,2.006.84,4.291S269.754,350.65,269.754,350.65Z"/>
        <path id="Tracé_598" data-name="Tracé 598" class="cls-26" d="M297.827,347.817l-5.737-2.046c-1.583-1.281-1.081-2.735-.28-3.8a3.037,3.037,0,0,1,2.272-1.143,2,2,0,0,0,.654-.173,3.274,3.274,0,0,0,.445-.218,3.64,3.64,0,0,0,1.561-3.046s6.3-1.846,8,0a4.292,4.292,0,0,1,.6.818,9.061,9.061,0,0,1,.965,4.358s.32,2.006.84,4.291S297.827,347.817,297.827,347.817Z"/>
        <path id="Tracé_599" data-name="Tracé 599" class="cls-7" d="M276.686,340.216a4.735,4.735,0,0,1,.765,1.116h0l-9.441,1.094a4.184,4.184,0,0,0,.654-2.224S274.97,338.371,276.686,340.216Z"/>
        <path id="Tracé_600" data-name="Tracé 600" class="cls-7" d="M305.365,338.2v1.779c-1.463,2.419-8.565,1.89-10.628.676a3.4,3.4,0,0,0,.445-.218,3.64,3.64,0,0,0,1.561-3.046s6.3-1.846,8,0A4.28,4.28,0,0,1,305.365,338.2Z"/>
        <path id="Tracé_601" data-name="Tracé 601" class="cls-16" d="M306.49,330.589A16.506,16.506,0,0,0,305.365,333v6.337c-1.6,2.668-9.944,1.779-11.069.32s-2.326-5.212-1.041-5.852,2.326-3.851,2.326-3.851-1.365.32-3.531-2.246-1.525-8.263-1.121-9.628,0-5.937,0-5.937.08-3.206-.565-4.251-2.006-6.977-2.006-6.977a4.736,4.736,0,0,0-1.121-3.051c-1.121-1.045-1.846-5.132-1.846-5.132a5.275,5.275,0,0,1-.814-3.446c.245-2.006-1.361-4.171-1.361-4.171l-2.726-8.663-2.57-6.5-1.432,3.767s-.4,8.823-.08,10.673.8,6.737.8,6.737-1.605,3.211-.889,5.937.48,8.583.48,8.583.72,12.114.08,13.074-.56,3.371-.56,3.371,3.286,7.057,2.224,8-.725,3.611-.725,3.611,2.224,0,1.285.961-1.641,6.03-1.641,6.03l-9.7,1.121a20.187,20.187,0,0,1-2.175-4.091c-1.285-2.971.24-2.668,1.534-2.966s.471-1.125-1.049-2.086-.645-3.113-.645-3.113,2.326-3.931,1.525-4.256-.889-5.852-.889-5.852-1.6-6.582-1.2-8.343-1.285-6.017-1.285-6.017l-.56-5.056a13.91,13.91,0,0,1-1.779-9.543v-7.8s-2.224-15.08-2.566-22.7c-.2-4.892-.147-11.54-.08-15.7.04-2.33.08-3.873.08-3.873l34.668-3.61a28.651,28.651,0,0,0,.627,5.145c.351,1.9.889,4.367,1.779,7.449a33.811,33.811,0,0,1,.961,15.4l-.32,11.153s3.051,7.458,2.406,10.028a21.418,21.418,0,0,0-.64,4.652s6.817,16.285,6.1,21.017,2.224,12.194,2.224,12.194S307.291,329.144,306.49,330.589Z"/>
        <path id="Tracé_602" data-name="Tracé 602" class="cls-14" d="M286.674,288.8l10.553-1.4S291.25,293.488,286.674,288.8Z"/>
        <path id="Tracé_603" data-name="Tracé 603" class="cls-7" d="M295.7,277.083s.36,3.731-1.926,5.136C293.776,282.219,297.868,281.574,295.7,277.083Z"/>
        <path id="Tracé_604" data-name="Tracé 604" class="cls-7" d="M295.053,265.214s-8.818,7.258-12.007,6.671S295.053,265.214,295.053,265.214Z"/>
        <path id="Tracé_605" data-name="Tracé 605" class="cls-7" d="M273.6,292.207s-6.7,1.521-6.9,4.211S273.6,292.207,273.6,292.207Z"/>
        <path id="Tracé_606" data-name="Tracé 606" class="cls-14" d="M275.072,325.657s-9.463,1.779-6.777,2.966a47.768,47.768,0,0,0,7.115,2.166S278.443,330.949,275.072,325.657Z"/>
        <g id="Groupe_215" data-name="Groupe 215" class="cls-27">
          <path id="Tracé_607" data-name="Tracé 607" d="M266.383,330.536a1.887,1.887,0,0,1-.863-1.374l-.1.169s-.889,2.166.64,3.113c.178.111.343.222.494.329.285-.053.587-.094.889-.165C268.723,332.3,267.908,331.5,266.383,330.536Z"/>
          <path id="Tracé_608" data-name="Tracé 608" d="M278.577,329.891c.262-.24.254-.858.094-1.65a4.486,4.486,0,0,0-.538,2.326A1.957,1.957,0,0,1,278.577,329.891Z"/>
          <path id="Tracé_609" data-name="Tracé 609" d="M277.122,289.984a10.83,10.83,0,0,0-.64,2.948,11.7,11.7,0,0,1,.734-2.028S277.18,290.544,277.122,289.984Z"/>
          <path id="Tracé_610" data-name="Tracé 610" d="M298.81,285.773a3.642,3.642,0,0,0,.089-.889c-.12.6-.2,1.152-.262,1.641A4.314,4.314,0,0,1,298.81,285.773Z"/>
          <path id="Tracé_611" data-name="Tracé 611" d="M276.891,318.5a5.083,5.083,0,0,0,.24-1.779,6.068,6.068,0,0,0-.445,2.25A2.218,2.218,0,0,1,276.891,318.5Z"/>
          <path id="Tracé_612" data-name="Tracé 612" d="M278.879,333.627a31.682,31.682,0,0,0-1.1,4.927l-9.7,1.125a20.379,20.379,0,0,1-2.172-4.091c-.111-.262-.2-.494-.271-.707-.583.267-.809.889-.049,2.633a20.551,20.551,0,0,0,2.17,4.091l9.712-1.125s.72-5.052,1.681-6.017C279.613,333.992,279.307,333.751,278.879,333.627Z"/>
          <path id="Tracé_613" data-name="Tracé 613" d="M266.063,319.223s.08,5.536.889,5.857h0c.4-.916.676-1.779.316-1.93-.8-.32-.889-5.857-.889-5.857s-1.6-6.577-1.2-8.343-1.285-6.017-1.285-6.017l-.56-5.052a13.9,13.9,0,0,1-1.779-9.548v-7.782s-2.224-15.08-2.566-22.68c-.2-4.892-.147-11.562-.08-15.7,0-.752.022-1.419.036-1.979l-.276.027s-.044,1.543-.08,3.878c-.071,4.154-.129,10.815.08,15.693.32,7.622,2.566,22.7,2.566,22.7v7.785a13.9,13.9,0,0,0,1.779,9.548l.565,5.021s1.685,4.251,1.285,6.017S266.063,319.223,266.063,319.223Z"/>
          <path id="Tracé_614" data-name="Tracé 614" d="M294.622,337.512a9.367,9.367,0,0,1-1.534-3.811c-.992.889.147,4.362,1.214,5.737,1.121,1.441,9.463,2.326,11.069-.32v-1.53C303.2,339.741,295.7,338.878,294.622,337.512Z"/>
          <path id="Tracé_615" data-name="Tracé 615" d="M306.82,328.45a15.536,15.536,0,0,0-1.125,2.406v1.116c.182-.414.445-.961.8-1.61a4.793,4.793,0,0,0,.351-1.983A.287.287,0,0,0,306.82,328.45Z"/>
          <path id="Tracé_616" data-name="Tracé 616" d="M295.115,329.713a15.339,15.339,0,0,0,.792-1.908s-1.365.32-3.531-2.224c-1.579-1.868-1.668-5.394-1.441-7.7-.4,1.361-1.045,7.057,1.121,9.623A5.754,5.754,0,0,0,295.115,329.713Z"/>
          <path id="Tracé_617" data-name="Tracé 617" d="M290.931,311.925a42.619,42.619,0,0,1,.16,4.754,7.316,7.316,0,0,1,.165-.747c.4-1.361,0-5.932,0-5.932s.08-3.211-.56-4.251-2.006-6.982-2.006-6.982a4.721,4.721,0,0,0-1.121-3.046c-1.121-1.041-1.845-5.136-1.845-5.136a5.252,5.252,0,0,1-.8-3.446c.24-2.006-1.361-4.171-1.361-4.171l-2.73-8.667-2.566-6.5-1.445,3.771s0,.476-.049,1.218l1.174-3.064,2.566,6.5,2.739,8.667s1.605,2.166,1.365,4.171a5.252,5.252,0,0,0,.8,3.446s.72,4.091,1.841,5.136a4.743,4.743,0,0,1,1.125,3.046s1.365,5.937,2.006,6.982S290.931,311.925,290.931,311.925Z"/>
        </g>
        <path id="Tracé_618" data-name="Tracé 618" class="cls-28" d="M297.667,164.32l-.6,2.926.036,1.3.027.965-3.349.342-.374-.694h0a30.546,30.546,0,0,0-2.6-4.2c-.618-.52-1.721-8.663-.4-8.182a3.5,3.5,0,0,1,1.863,1.69S298.85,159.246,297.667,164.32Z"/>
        <path id="Tracé_619" data-name="Tracé 619" class="cls-7" d="M297.124,169.532l-3.349.342-.374-.694h0a2.957,2.957,0,0,1,3.7-.609Z"/>
        <path id="Tracé_620" data-name="Tracé 620" class="cls-17" d="M297.969,171.115l-4.416,1.025-.089-.658-.253-1.779a3.037,3.037,0,0,1,4.253-.6l.021.016.218.889Z"/>
        <path id="Tracé_621" data-name="Tracé 621" class="cls-28" d="M226.47,164.658l-4.706,2.53-.445-.889c-.445-.938-1.116-2.352-1.3-2.859-.28-.778-2.246-1.779-2.246-1.779-4.932-4.714.943-8.765.943-8.765,3.113-6.257,6.577,2.126,6.577,2.126s.48,4.416.142,4.714-.342,1.5-.342,1.5a18.115,18.115,0,0,1,1.138,2.7C226.4,164.383,226.47,164.658,226.47,164.658Z"/>
        <path id="Tracé_622" data-name="Tracé 622" class="cls-7" d="M226.47,164.658l-4.709,2.526-.445-.889c.663-.551,3.024-2.464,3.8-2.379a5.948,5.948,0,0,0,1.116.031C226.394,164.382,226.47,164.658,226.47,164.658Z"/>
        <path id="Tracé_623" data-name="Tracé 623" class="cls-17" d="M226.951,166.1l-5.292,2.61-.107-1.138-.076-.787s3.068-2.628,3.976-2.53a4.783,4.783,0,0,0,1.383,0l.058.952Z"/>
        <path id="Tracé_624" data-name="Tracé 624" class="cls-28" d="M284.833,183.788s-23.089,2.606-18.771,1.2c3-.978,4.194-2.886,4.447-5.007a12.023,12.023,0,0,0-.863-5.336,22.855,22.855,0,0,0-2.063-4.171s17.65-9.708,14.119-.889a14.17,14.17,0,0,0-1,4.18,11.715,11.715,0,0,0,.445,4.229,12.582,12.582,0,0,0,3.687,5.79Z"/>
        <path id="Tracé_625" data-name="Tracé 625" class="cls-7" d="M281.7,169.594a14.17,14.17,0,0,0-1,4.18c-1.663,1.4-3.487,1.3-5.826,1.3-1.779,0-3.789.445-5.23-.445a22.855,22.855,0,0,0-2.063-4.171S285.233,160.763,281.7,169.594Z"/>
        <circle id="Ellipse_55" data-name="Ellipse 55" class="cls-28" cx="274.561" cy="166.143" r="9.548"/>
        <path id="Tracé_626" data-name="Tracé 626" class="cls-7" d="M284.833,183.789s-23.089,2.606-18.771,1.205c3-.978,4.194-2.886,4.447-5.007a12.605,12.605,0,0,1,4.941-2.619,6.9,6.9,0,0,1,4.185-.067,5.785,5.785,0,0,1,1.521.7,12.583,12.583,0,0,0,3.678,5.786Z"/>
        <path id="Tracé_627" data-name="Tracé 627" class="cls-7" d="M297.97,171.115l-4.416,1.023-.089-.658a3.9,3.9,0,0,1,4.238-1.45Z"/>
        <path id="Tracé_628" data-name="Tracé 628" class="cls-7" d="M226.951,166.1l-5.292,2.61-.107-1.138a38.96,38.96,0,0,1,5.336-2.366Z"/>
        <path id="Tracé_629" data-name="Tracé 629" class="cls-7" d="M293.963,241.96c-8.939,1.414-21.666,3.251-23.685,2.637-1.672-.511-7.022-.445-11.678-.3.04-2.33.08-3.873.08-3.873l34.656-3.618A28.738,28.738,0,0,0,293.963,241.96Z"/>
        <path id="Tracé_630" data-name="Tracé 630" class="cls-29" d="M302.879,239.859s-29.439,5.056-32.6,4.091-19.38.08-19.38.08c-7.3,4.892-4.251-2.326-4.251-2.326a17.979,17.979,0,0,1,.24-6.817,41.375,41.375,0,0,0,1.227-6.817s-.16-4.816.72-5.937,1.926-9.147,1.926-9.147.8-5.452.725-6.671q.006-2.29.24-4.572l1.041-5.617c-6.017-.8-24.307-12.034-24.307-12.034-.889-3.767-7.7-12.594-7.7-12.594a9.12,9.12,0,0,0-.565-2.166c-.48-1.281,6.742-3.847,6.742-3.847s5.372,6.577,6.5,8.343,4.972,5.052,4.972,5.052a3.906,3.906,0,0,1,1.779.231l.093.027h0a14.392,14.392,0,0,1,3.593,2.063,6.961,6.961,0,0,1,4.892,1.845s3.291-.48,3.851.08,3.371,0,3.371,0,2.806-5.937,4.652-4.211,9.672,1.645,9.672,1.645c1.045-1.387,3.584-2.384,5.172-2.9a6.928,6.928,0,0,1,4.185-.067,5.394,5.394,0,0,1,1.65.8l4.749,4.652s1.365-1.779,1.205-2.166,1.6-.72,1.6-.72,2.326-.725,3.206-.965,1.69.716,1.779.8a9.414,9.414,0,0,1-.4-3.526,4.147,4.147,0,0,0-.965-2.891c2.811-6.9,9.148-1.121,9.148-1.121s.72,3.771.08,5.212.64,4.5.48,5.3.32,2.166.32,3.691a21.6,21.6,0,0,1-1.285,5.692c-.485,1.281-4.331,4.171-4.331,4.171s-.24,4.576-1.926,7.222-.689,11.713-.689,11.713,1.6,7.075,3.624,9.339S302.879,239.859,302.879,239.859Z"/>
        <path id="Tracé_631" data-name="Tracé 631" class="cls-7" d="M259.965,187.079s-.889-2.646-1.685-2.886a19.15,19.15,0,0,1-2.326-1.045l.516-.987s3.011.827,3.5,1.708S259.965,187.079,259.965,187.079Z"/>
        <path id="Tracé_632" data-name="Tracé 632" class="cls-7" d="M243.841,181.219c-.16.8-7.3,1.525-7.3,1.525l3.611-3.62h0l.089.031h0a14.373,14.373,0,0,1,3.6,2.063Z"/>
        <circle id="Ellipse_56" data-name="Ellipse 56" class="cls-16" cx="223.179" cy="170.212" r="0.64"/>
        <circle id="Ellipse_57" data-name="Ellipse 57" class="cls-16" cx="224.002" cy="171.497" r="0.64"/>
        <circle id="Ellipse_58" data-name="Ellipse 58" class="cls-16" cx="224.807" cy="172.68" r="0.64"/>
        <circle id="Ellipse_59" data-name="Ellipse 59" class="cls-16" cx="225.647" cy="173.965" r="0.64"/>
        <circle id="Ellipse_60" data-name="Ellipse 60" class="cls-16" cx="301.264" cy="173.894" r="0.52"/>
        <circle id="Ellipse_61" data-name="Ellipse 61" class="cls-16" cx="301.345" cy="175.077" r="0.52"/>
        <circle id="Ellipse_62" data-name="Ellipse 62" class="cls-16" cx="301.416" cy="176.26" r="0.52"/>
        <path id="Tracé_633" data-name="Tracé 633" class="cls-7" d="M260.006,208.817c-.076-.093,18.006,22.742,32.045,9.548C292.051,218.364,269.866,221.371,260.006,208.817Z"/>
        <path id="Tracé_634" data-name="Tracé 634" class="cls-7" d="M249.617,220.69s10.82.294,11.949,3.406v3.242a2.065,2.065,0,0,1-2.01,0c-1.089-.591-7.635-3.913-9.939-2.317Z"/>
        <path id="Tracé_635" data-name="Tracé 635" class="cls-29" d="M249.817,220.69s10.348.28,11.429,3.251v3.082a1.987,1.987,0,0,1-1.926,0c-1.041-.56-7.3-3.731-9.5-2.224Z"/>
        <path id="Tracé_636" data-name="Tracé 636" class="cls-7" d="M255.523,197.192a34.988,34.988,0,0,0,4.193,7.2,28.229,28.229,0,0,0,6.573,6.346S255.7,198.682,255.523,197.192Z"/>
        <path id="Tracé_637" data-name="Tracé 637" class="cls-7" d="M251.983,184.62s1.806,7.791,6.457,10.442Z"/>
        <path id="Tracé_638" data-name="Tracé 638" class="cls-7" d="M249.213,185.408c-.044-.142-1.6,6.164,6,9.654C255.23,195.063,251.983,193.964,249.213,185.408Z"/>
        <path id="Tracé_639" data-name="Tracé 639" class="cls-7" d="M296.462,180.183a54.318,54.318,0,0,1,4.8,3.607S298.745,180.019,296.462,180.183Z"/>
        <path id="Tracé_640" data-name="Tracé 640" class="cls-26" d="M271.981,174.8a2.036,2.036,0,0,0,.747,1.29,2.059,2.059,0,0,0,.889.2c2.913.178,5.941.307,8.632-.814a3.258,3.258,0,0,0,1.334-.867,5.366,5.366,0,0,0,.765-2.112,27.754,27.754,0,0,1,1.779-4.056,13.6,13.6,0,0,0,.943-7.28,4.81,4.81,0,0,0-.725-2.13c-.774-1.1-2.179-1.548-3.2-2.424s-1.677-2.224-2.868-2.882a5.539,5.539,0,0,0-3.6-.32,19.02,19.02,0,0,0-6.768,2.526,3.356,3.356,0,0,1-2.224.765,3.112,3.112,0,0,1-1.654-1.267,8.918,8.918,0,0,0-.711,4.158,1.834,1.834,0,0,1,0,.627,1.922,1.922,0,0,1-.445.663c-.72.832-1.17,2.152-.445,2.993.307.369.783.569,1.085.943.539.672.356,1.632.342,2.5a1.278,1.278,0,0,0,.213.845,1.231,1.231,0,0,0,1.179.28,3.267,3.267,0,0,1,1.255-.12,2.065,2.065,0,0,1,1.09.84A15.44,15.44,0,0,1,271.981,174.8Z"/>
        <g id="Groupe_216" data-name="Groupe 216" class="cls-3">
          <path id="Tracé_641" data-name="Tracé 641" d="M283.89,173.867a3.222,3.222,0,0,1-1.334.889c-2.668,1.121-5.719.992-8.632.809a1.944,1.944,0,0,1-.889-.2,2.025,2.025,0,0,1-.747-1.29,14.848,14.848,0,0,0-2.432-5.643,2.058,2.058,0,0,0-1.09-.84,3.186,3.186,0,0,0-1.254.12,1.241,1.241,0,0,1-1.165-.28,1.283,1.283,0,0,1-.213-.849c0-.858.2-1.823-.342-2.49-.3-.378-.774-.574-1.085-.943a1.888,1.888,0,0,1-.187-1.917,2.2,2.2,0,0,0-.133,2.557c.307.369.783.569,1.085.943.538.671.356,1.632.343,2.5a1.278,1.278,0,0,0,.213.845,1.233,1.233,0,0,0,1.179.28,3.264,3.264,0,0,1,1.254-.12,2.057,2.057,0,0,1,1.089.841,15.04,15.04,0,0,1,2.432,5.648,1.508,1.508,0,0,0,1.52,1.5c.042,0,.084,0,.125-.006,2.913.178,5.941.307,8.632-.814a3.258,3.258,0,0,0,1.334-.867,2.537,2.537,0,0,0,.414-.774A1.11,1.11,0,0,1,283.89,173.867Z"/>
          <path id="Tracé_642" data-name="Tracé 642" d="M265.314,159.957a1.323,1.323,0,0,0,.294-.48,1.834,1.834,0,0,0,0-.627,8.865,8.865,0,0,1,.445-3.455l-.053-.062a8.841,8.841,0,0,0-.712,4.158A2.687,2.687,0,0,1,265.314,159.957Z"/>
        </g>
        <path id="Tracé_643" data-name="Tracé 643" class="cls-7" d="M270.278,180.579s11.927,1.579,13-.213"/>
        <path id="Tracé_644" data-name="Tracé 644" class="cls-7" d="M293.474,175.646s6.622,0,8.08,2.5"/>
        <path id="Tracé_645" data-name="Tracé 645" class="cls-5" d="M436.107,169.656s.827,1.081-.382,2.717-2.224,3.02-1.806,4.038c0,0,1.828-3.037,3.313-3.082S437.744,171.461,436.107,169.656Z"/>
        <path id="Tracé_646" data-name="Tracé 646" class="cls-7" d="M436.107,169.656a1.425,1.425,0,0,1,.169.338c1.45,1.708,2.224,3.3.827,3.335-1.3.04-2.855,2.361-3.229,2.948a.409.409,0,0,0,.044.133c.018.044,1.828-3.037,3.313-3.082S437.744,171.461,436.107,169.656Z"/>
        <path id="Tracé_647" data-name="Tracé 647" class="cls-22" d="M437.645,171.013c0,.382-.04.694-.093.694s-.1-.311-.1-.694.053-.2.108-.2S437.645,170.635,437.645,171.013Z"/>
        <path id="Tracé_648" data-name="Tracé 648" class="cls-22" d="M438.175,171.471c-.334.182-.627.293-.649.245s.222-.231.56-.414.2-.049.227,0S438.513,171.288,438.175,171.471Z"/>
        <path id="Tracé_649" data-name="Tracé 649" class="cls-5" d="M431.731,169.656s-.832,1.081.382,2.717,2.224,3.02,1.806,4.038c0,0-1.828-3.037-3.318-3.082S430.1,171.461,431.731,169.656Z"/>
        <path id="Tracé_650" data-name="Tracé 650" class="cls-7" d="M431.731,169.656a1.384,1.384,0,0,0-.173.338c-1.45,1.708-2.224,3.3-.827,3.335,1.3.04,2.859,2.361,3.233,2.948a.366.366,0,0,1-.044.133c-.017.044-1.828-3.037-3.318-3.082S430.1,171.461,431.731,169.656Z"/>
        <path id="Tracé_651" data-name="Tracé 651" class="cls-22" d="M430.188,171.013c0,.382.044.694.1.694a1.385,1.385,0,0,0,.093-.694c0-.378-.053-.2-.107-.2S430.188,170.635,430.188,171.013Z"/>
        <path id="Tracé_652" data-name="Tracé 652" class="cls-22" d="M429.659,171.471c.338.182.627.293.654.245s-.227-.231-.56-.414-.2-.049-.231,0S429.325,171.288,429.659,171.471Z"/>
        <path id="Tracé_653" data-name="Tracé 653" class="cls-30" d="M430.442,176.246a8.491,8.491,0,0,0,3.015-.569c.7-.5,3.558-1.09,3.74-.293s3.482,3.967.889,4-6.079-.4-6.777-.832S430.442,176.246,430.442,176.246Z"/>
        <path id="Tracé_654" data-name="Tracé 654" class="cls-31" d="M438.118,179.1c-2.615,0-6.079-.409-6.773-.832-.534-.325-.743-1.485-.813-2.019h-.09s.147,1.872.845,2.295,4.158.854,6.777.832c.756,0,1.014-.276,1-.672C438.967,178.942,438.682,179.093,438.118,179.1Z"/>
      </g>
    </g>
  </g>
</svg>
